<svg width="64" height="64" viewBox="0 0 64 64" fill="none" xmlns="http://www.w3.org/2000/svg">
<path d="M32 0.5C37.9716 0.5 40.8844 0.502554 43.2969 0.982422C53.2537 2.96301 61.037 10.7463 63.0176 20.7031C63.4974 23.1156 63.5 26.0284 63.5 32C63.5 37.9716 63.4974 40.8844 63.0176 43.2969C61.037 53.2537 53.2537 61.037 43.2969 63.0176C40.8844 63.4974 37.9716 63.5 32 63.5C26.0284 63.5 23.1156 63.4974 20.7031 63.0176C10.7463 61.037 2.96301 53.2537 0.982422 43.2969C0.502554 40.8844 0.5 37.9716 0.5 32C0.5 26.0284 0.502554 23.1156 0.982422 20.7031C2.96301 10.7463 10.7463 2.96301 20.7031 0.982422C23.1156 0.502554 26.0284 0.5 32 0.5Z" fill="white"/>
<path d="M32 0.5C37.9716 0.5 40.8844 0.502554 43.2969 0.982422C53.2537 2.96301 61.037 10.7463 63.0176 20.7031C63.4974 23.1156 63.5 26.0284 63.5 32C63.5 37.9716 63.4974 40.8844 63.0176 43.2969C61.037 53.2537 53.2537 61.037 43.2969 63.0176C40.8844 63.4974 37.9716 63.5 32 63.5C26.0284 63.5 23.1156 63.4974 20.7031 63.0176C10.7463 61.037 2.96301 53.2537 0.982422 43.2969C0.502554 40.8844 0.5 37.9716 0.5 32C0.5 26.0284 0.502554 23.1156 0.982422 20.7031C2.96301 10.7463 10.7463 2.96301 20.7031 0.982422C23.1156 0.502554 26.0284 0.5 32 0.5Z" stroke="#D9D9D9"/>
<mask id="mask0_3349_23453" style="mask-type:alpha" maskUnits="userSpaceOnUse" x="16" y="16" width="32" height="32">
<rect x="16" y="16" width="32" height="32" fill="#D9D9D9"/>
</mask>
<g mask="url(#mask0_3349_23453)">
<path d="M22.8992 44.6673C21.9087 44.6673 21.0668 44.3195 20.3735 43.624C19.6802 42.9284 19.3335 42.0839 19.3335 41.0903C19.3335 40.2834 19.5771 39.5633 20.0642 38.93C20.5515 38.2966 21.1669 37.8766 21.9105 37.67V34.5903C21.9105 33.599 22.2609 32.7529 22.9618 32.052C23.6627 31.3511 24.5088 31.0007 25.5002 31.0007H31.0002V26.3313C30.2566 26.1247 29.6413 25.7047 29.1542 25.0713C28.6668 24.438 28.4232 23.7179 28.4232 22.911C28.4232 21.9174 28.7698 21.0729 29.4632 20.3773C30.1565 19.6818 30.9984 19.334 31.9888 19.334C32.9793 19.334 33.8249 19.6818 34.5258 20.3773C35.2267 21.0729 35.5772 21.9174 35.5772 22.911C35.5772 23.7179 35.3335 24.438 34.8462 25.0713C34.3591 25.7047 33.7437 26.1247 33.0002 26.3313V31.0007H38.5002C39.4915 31.0007 40.3376 31.3511 41.0385 32.052C41.7394 32.7529 42.0898 33.599 42.0898 34.5903V37.67C42.8334 37.8766 43.4488 38.2966 43.9362 38.93C44.4233 39.5633 44.6668 40.2834 44.6668 41.0903C44.6668 42.0839 44.3164 42.9284 43.6155 43.624C42.9146 44.3195 42.0689 44.6673 41.0785 44.6673C40.0881 44.6673 39.2462 44.3195 38.5528 43.624C37.8597 42.9284 37.5132 42.0839 37.5132 41.0903C37.5132 40.2834 37.7567 39.5633 38.2438 38.93C38.7309 38.2966 39.3463 37.8766 40.0898 37.67V34.5903C40.0898 34.1399 39.9375 33.7623 39.6328 33.4576C39.3282 33.153 38.9506 33.0007 38.5002 33.0007H33.0002V37.67C33.7437 37.8766 34.3591 38.2966 34.8462 38.93C35.3335 39.5633 35.5772 40.2834 35.5772 41.0903C35.5772 42.0839 35.2267 42.9284 34.5258 43.624C33.8249 44.3195 32.9793 44.6673 31.9888 44.6673C30.9984 44.6673 30.1565 44.3195 29.4632 43.624C28.7698 42.9284 28.4232 42.0839 28.4232 41.0903C28.4232 40.2834 28.6668 39.5633 29.1542 38.93C29.6413 38.2966 30.2566 37.8766 31.0002 37.67V33.0007H25.5002C25.0497 33.0007 24.6722 33.153 24.3675 33.4576C24.0628 33.7623 23.9105 34.1399 23.9105 34.5903V37.67C24.6541 37.8766 25.2694 38.2966 25.7565 38.93C26.2436 39.5633 26.4872 40.2834 26.4872 41.0903C26.4872 42.0839 26.1368 42.9284 25.4362 43.624C24.7353 44.3195 23.8896 44.6673 22.8992 44.6673ZM22.9042 42.6673C23.3459 42.6673 23.7203 42.5162 24.0272 42.214C24.3341 41.912 24.4875 41.5377 24.4875 41.091C24.4875 40.6443 24.3351 40.2698 24.0302 39.9673C23.7255 39.6646 23.3479 39.5133 22.8975 39.5133C22.4599 39.5133 22.0899 39.6668 21.7875 39.9736C21.4848 40.2805 21.3335 40.6528 21.3335 41.0903C21.3335 41.5279 21.4848 41.9001 21.7875 42.207C22.0899 42.5139 22.4622 42.6673 22.9042 42.6673ZM31.9938 42.6673C32.4356 42.6673 32.8099 42.5162 33.1168 42.214C33.4237 41.912 33.5772 41.5377 33.5772 41.091C33.5772 40.6443 33.4248 40.2698 33.1202 39.9673C32.8153 39.6646 32.4377 39.5133 31.9875 39.5133C31.5497 39.5133 31.1796 39.6668 30.8772 39.9736C30.5745 40.2805 30.4232 40.6528 30.4232 41.0903C30.4232 41.5279 30.5745 41.9001 30.8772 42.207C31.1796 42.5139 31.5518 42.6673 31.9938 42.6673ZM41.0835 42.6673C41.5253 42.6673 41.8996 42.5162 42.2065 42.214C42.5134 41.912 42.6668 41.5377 42.6668 41.091C42.6668 40.6443 42.5145 40.2698 42.2098 39.9673C41.9052 39.6646 41.5276 39.5133 41.0772 39.5133C40.6394 39.5133 40.2693 39.6668 39.9668 39.9736C39.6642 40.2805 39.5128 40.6528 39.5128 41.0903C39.5128 41.5279 39.6642 41.9001 39.9668 42.207C40.2693 42.5139 40.6415 42.6673 41.0835 42.6673ZM31.9938 24.488C32.4356 24.488 32.8099 24.3369 33.1168 24.0347C33.4237 23.7327 33.5772 23.3583 33.5772 22.9117C33.5772 22.465 33.4248 22.0904 33.1202 21.788C32.8153 21.4853 32.4377 21.334 31.9875 21.334C31.5497 21.334 31.1796 21.4874 30.8772 21.7943C30.5745 22.1012 30.4232 22.4734 30.4232 22.911C30.4232 23.3485 30.5745 23.7208 30.8772 24.0277C31.1796 24.3345 31.5518 24.488 31.9938 24.488Z" fill="#006EE6"/>
</g>
</svg>
