<svg width="161" height="36" viewBox="0 0 161 36" fill="none" xmlns="http://www.w3.org/2000/svg">
<path fill-rule="evenodd" clip-rule="evenodd" d="M145.608 18.6487C144.79 18.082 144.499 17.6198 144.499 16.9711C144.499 16.1957 145.124 15.5023 146.01 15.5023C146.389 15.5023 146.828 15.6738 147.267 16.069C147.877 16.6356 148.882 17.0158 150.243 17.0158C151.605 17.0158 152.714 16.3225 152.714 15.1892C152.714 13.8024 150.973 13.4893 149.507 12.8779C146.263 11.5582 145.132 10.2535 145.132 7.96459C145.132 5.04939 147.185 3.15564 150.578 3.15564C152.111 3.15564 153.346 3.4315 154.269 3.82665C154.961 4.11743 155.34 4.68406 155.34 5.3178C155.34 6.13793 154.775 6.78658 154.165 6.78658C153.748 6.78658 153.346 6.65983 152.885 6.45107C152.238 6.13793 151.464 6.01118 150.645 6.01118C149.365 6.01118 148.361 6.65983 148.361 7.71109C148.361 9.13514 149.931 9.59739 151.672 10.2088C154.001 10.9842 155.906 12.1174 155.906 14.973C155.906 17.9925 153.748 19.9087 150.124 19.9087C148.577 19.9087 146.836 19.4688 145.623 18.6487H145.608ZM142.632 12.438V16.9338C142.632 18.0075 142.342 18.5294 141.374 19.0513C140.727 19.3868 138.674 19.9534 136.367 19.9534C131.278 19.9534 127.691 16.5089 127.691 11.5135C127.691 6.51817 131.382 3.15564 136.739 3.15564C138.309 3.15564 139.842 3.55825 140.638 3.82665C141.493 4.11743 141.94 4.68406 141.94 5.44455C141.94 6.28705 141.419 6.85368 140.764 6.85368C140.177 6.85368 139.797 6.66729 139.321 6.45107C138.629 6.13793 137.58 6.01118 136.747 6.01118C133.391 6.01118 131.151 8.19571 131.151 11.5135C131.151 14.8313 133.354 17.1202 136.494 17.1202C137.833 17.1202 138.964 16.8444 140.057 16.3225V13.616H137.751C136.933 13.616 136.367 13.0047 136.367 12.2516C136.367 11.4986 136.977 10.8649 137.751 10.8649H141.166C141.985 10.8649 142.632 11.4762 142.632 12.438ZM126.144 17.0531L122.729 13.2134C124.76 12.2516 125.787 10.5666 125.787 8.53122C125.787 5.40727 123.569 3.38677 120.006 3.38677H115.943C114.998 3.38677 114.306 4.12488 114.306 4.98229V18.164C114.306 19.1333 114.998 19.8192 115.98 19.8192C116.962 19.8192 117.595 19.1258 117.595 18.164V13.6906H119.373L123.644 18.9991C124.128 19.5657 124.566 19.8192 125.087 19.8192C125.965 19.8192 126.657 19.1706 126.657 18.2013C126.657 17.7987 126.508 17.4035 126.136 17.0457L126.144 17.0531ZM119.693 11.0885H117.595V6.27959H119.693C121.345 6.27959 122.394 7.137 122.394 8.75489C122.394 10.246 121.345 11.0885 119.693 11.0885ZM109.299 3.38677C108.458 3.38677 107.729 4.03541 107.602 4.85555C106.62 3.99814 105.065 3.15564 102.848 3.15564C98.3463 3.15564 95.1172 6.97297 95.1172 11.5955C95.1172 16.2181 98.3464 20.0354 102.892 20.0354C104.634 20.0354 106.33 19.2153 107.61 17.8136V18.1267C107.61 19.096 108.384 19.8267 109.306 19.8267C110.229 19.8267 111.003 19.0885 111.003 18.1267V5.04194C111.003 4.16216 110.251 3.38677 109.306 3.38677H109.299ZM107.602 14.891C106.62 16.1062 105.236 16.9711 103.495 16.9711C100.921 16.9711 98.5696 14.891 98.5696 11.5955C98.5696 8.30009 100.913 6.18267 103.495 6.18267C105.273 6.18267 106.761 7.02516 107.602 8.19571V14.891ZM86.7393 3.15564C82.1336 3.15564 78.7557 6.74185 78.7557 11.5508C78.7557 16.6729 82.461 20.028 87.4907 20.028C89.3136 20.028 90.9654 19.5657 92.1857 18.9171C92.833 18.6039 93.1455 18.0373 93.1455 17.493C93.1455 16.7176 92.5354 16.1062 91.8062 16.1062C91.4044 16.1062 91.1142 16.233 90.6306 16.397C89.9163 16.7102 88.9119 17.0084 87.6544 17.0084C84.8047 17.0084 82.3345 15.3681 82.0369 12.0727H91.7988C92.6544 12.0727 93.1827 12.028 93.4952 11.5881C93.8746 11.2078 93.9118 10.8127 93.9118 10.2833C93.9118 6.52563 91.1886 3.14818 86.7244 3.14818L86.7393 3.15564ZM82.2155 9.76887C82.6991 7.39795 84.3732 5.92917 86.702 5.92917C89.1723 5.92917 90.8464 7.71109 90.891 9.76887H82.2155ZM77.461 3.30475C75.7869 3.30475 74.0012 4.12488 72.5578 6.32433V5.08667C72.5578 4.11743 71.8658 3.38677 70.906 3.38677C69.9462 3.38677 69.2542 4.12488 69.2542 5.08667V18.1193C69.2542 19.0885 69.9908 19.8192 70.906 19.8192C71.8212 19.8192 72.5578 19.0811 72.5578 18.1193V9.32153C73.9194 7.137 75.7423 6.6151 77.4982 6.6151C78.4655 6.6151 79.2393 5.87698 79.2393 4.84809C79.2393 3.94595 78.5473 3.2973 77.461 3.2973V3.30475ZM64.2245 3.38677C63.406 3.38677 62.6099 4.03541 62.528 4.85555C61.5608 3.99814 59.9908 3.15564 57.7736 3.15564C53.2498 3.15564 49.9983 6.97297 49.9983 11.5955C49.9983 16.2181 53.2424 20.0354 57.8108 20.0354C59.5519 20.0354 61.2706 19.2153 62.528 17.8136V18.1267C62.528 19.096 63.3018 19.8267 64.2245 19.8267C65.1471 19.8267 65.9432 19.0885 65.9432 18.1267V5.04194C65.9432 4.16216 65.1471 3.38677 64.2245 3.38677ZM62.528 14.891C61.5608 16.1062 60.162 16.9711 58.4209 16.9711C55.8465 16.9711 53.4581 14.891 53.4581 11.5955C53.4581 8.30009 55.8465 6.18267 58.4209 6.18267C60.1992 6.18267 61.7096 7.02516 62.528 8.19571V14.891ZM26.5981 5.63094C26.5981 3.64026 28.2127 2 30.2216 2C32.2305 2 33.8451 3.64026 33.8451 5.63094C33.8451 7.62162 32.2305 9.28425 30.2216 9.28425C28.2127 9.28425 26.5981 7.64399 26.5981 5.63094ZM19.0758 5.63094C19.0758 3.99068 20.3928 2.67102 22.0297 2.67102C23.6666 2.67102 24.9835 3.99068 24.9835 5.63094C24.9835 7.2712 23.6666 8.61323 22.0297 8.61323C20.3928 8.61323 19.0758 7.2712 19.0758 5.63094ZM11.5982 5.63094C11.5982 4.39329 12.6026 3.38677 13.8378 3.38677C15.0729 3.38677 16.0773 4.39329 16.0773 5.63094C16.0773 6.86859 15.0729 7.89748 13.8378 7.89748C12.6026 7.89748 11.5982 6.89096 11.5982 5.63094ZM26.5981 13.8397C26.5981 11.8267 28.2127 10.2088 30.2216 10.2088C32.2305 10.2088 33.8451 11.8267 33.8451 13.8397C33.8451 15.8528 32.2305 17.493 30.2216 17.493C28.2127 17.493 26.5981 15.8528 26.5981 13.8397ZM19.0758 13.8397C19.0758 12.1994 20.3928 10.8798 22.0297 10.8798C23.6666 10.8798 24.9835 12.1994 24.9835 13.8397C24.9835 15.48 23.6666 16.822 22.0297 16.822C20.3928 16.822 19.0758 15.48 19.0758 13.8397ZM11.5982 13.8397C11.5982 12.6021 12.6026 11.5955 13.8378 11.5955C15.0729 11.5955 16.0773 12.6021 16.0773 13.8397C16.0773 15.0774 15.0729 16.1062 13.8378 16.1062C12.6026 16.1062 11.5982 15.0997 11.5982 13.8397ZM2 22.0485C2 20.0354 3.6369 18.4175 5.6235 18.4175C7.6101 18.4175 9.26932 20.0354 9.26932 22.0485C9.26932 24.0615 7.63242 25.7018 5.6235 25.7018C3.61458 25.7018 2 24.0615 2 22.0485ZM4.18005 13.8397C4.18005 13.0196 4.82737 12.3709 5.64582 12.3709C6.46427 12.3709 7.11159 13.0196 7.11159 13.8397C7.11159 14.6598 6.46427 15.3308 5.64582 15.3308C4.82737 15.3308 4.18005 14.6598 4.18005 13.8397ZM4.18005 5.63094C4.18005 4.81081 4.82737 4.16216 5.64582 4.16216C6.46427 4.16216 7.11159 4.81081 7.11159 5.63094C7.11159 6.45107 6.46427 7.12209 5.64582 7.12209C4.82737 7.12209 4.18005 6.45107 4.18005 5.63094ZM28.7558 22.0485C28.7558 21.2507 29.4255 20.6021 30.2216 20.6021C31.0177 20.6021 31.6874 21.2507 31.6874 22.0485C31.6874 22.8462 31.0177 23.5172 30.2216 23.5172C29.4255 23.5172 28.7558 22.8686 28.7558 22.0485ZM19.7901 22.0485C19.7901 20.8108 20.7946 19.8267 22.0297 19.8267C23.2648 19.8267 24.2693 20.8108 24.2693 22.0485C24.2693 23.2861 23.2648 24.2926 22.0297 24.2926C20.7946 24.2926 19.7901 23.2861 19.7901 22.0485ZM10.8839 22.0485C10.8839 20.4306 12.2009 19.1109 13.8378 19.1109C15.4746 19.1109 16.7916 20.4306 16.7916 22.0485C16.7916 23.6664 15.4746 25.0084 13.8378 25.0084C12.2009 25.0084 10.8839 23.6887 10.8839 22.0485ZM28.7558 30.2572C28.7558 29.4595 29.4255 28.8108 30.2216 28.8108C31.0177 28.8108 31.6874 29.4595 31.6874 30.2572C31.6874 31.055 31.0177 31.726 30.2216 31.726C29.4255 31.726 28.7558 31.0774 28.7558 30.2572ZM19.7901 30.2572C19.7901 29.0196 20.7946 28.0354 22.0297 28.0354C23.2648 28.0354 24.2693 29.0196 24.2693 30.2572C24.2693 31.4949 23.2648 32.5014 22.0297 32.5014C20.7946 32.5014 19.7901 31.4949 19.7901 30.2572ZM10.8839 30.2572C10.8839 28.617 12.2009 27.2973 13.8378 27.2973C15.4746 27.2973 16.7916 28.617 16.7916 30.2572C16.7916 31.8975 15.4746 33.2172 13.8378 33.2172C12.2009 33.2172 10.8839 31.8975 10.8839 30.2572ZM2.04464 30.2572C2.04464 28.2665 3.65922 26.6487 5.64582 26.6487C7.63242 26.6487 9.26932 28.2665 9.26932 30.2572C9.26932 32.2479 7.63242 33.8882 5.64582 33.8882C3.65922 33.8882 2.04464 32.2479 2.04464 30.2572ZM55.1918 29.6086C55.1918 31.1594 54.0831 32.5089 52.1337 32.5089H50.7275C50.4968 32.5089 50.3331 32.3225 50.3331 32.0913V27.0736C50.3331 26.8425 50.5043 26.6561 50.7275 26.6561H52.1337C54.0608 26.6561 55.1918 27.9609 55.1918 29.616V29.6086ZM54.3361 29.6086C54.3361 28.3262 53.4581 27.4017 52.0965 27.4017H51.1739V31.7484H52.0965C53.4358 31.7484 54.3361 30.8462 54.3361 29.6086ZM61.8138 32.151C61.8138 32.3597 61.6426 32.5312 61.3971 32.5312C61.2111 32.5312 61.0846 32.4492 60.9953 32.2405L60.5117 30.9581H57.9522L57.4685 32.2628C57.3867 32.4492 57.2379 32.5387 57.0667 32.5387C56.8361 32.5387 56.665 32.3672 56.665 32.1584C56.665 32.0988 56.6873 32.0317 56.7096 31.9497L58.6144 27.1035C58.7408 26.7903 58.9715 26.6188 59.2245 26.6188C59.4998 26.6188 59.7304 26.7829 59.8495 27.1035L61.7542 31.9497C61.7766 32.0317 61.7989 32.0988 61.7989 32.1584L61.8138 32.151ZM60.2438 30.2199L59.2394 27.6403L58.2349 30.2199H60.2438ZM67.3048 27.0289C67.3048 27.26 67.156 27.4091 66.9253 27.4091H65.3777V32.1361C65.3777 32.3672 65.1917 32.5312 64.9611 32.5312C64.7081 32.5312 64.5444 32.3597 64.5444 32.1361V27.4091H62.9745C62.7438 27.4091 62.595 27.26 62.595 27.0289C62.595 26.8201 62.7438 26.6487 62.9745 26.6487H66.9328C67.1634 26.6487 67.3122 26.8201 67.3122 27.0289H67.3048ZM69.2096 32.1286V27.0289C69.2096 26.7978 69.3956 26.6114 69.6262 26.6114C69.8792 26.6114 70.0429 26.7978 70.0429 27.0289V32.1286C70.0429 32.3597 69.8718 32.5238 69.6262 32.5238C69.3956 32.5238 69.2096 32.3523 69.2096 32.1286ZM73.339 32.2777C73.339 32.904 72.9372 33.5154 72.5429 33.8956C72.4834 33.9553 72.4164 34 72.3345 34C72.1857 34 72.1039 33.8733 72.1039 33.7689C72.1039 33.7092 72.1039 33.6421 72.1634 33.5825C72.4536 33.247 72.6247 32.9562 72.6842 32.576C72.409 32.5312 72.2229 32.3448 72.2229 32.069C72.2229 31.7782 72.4536 31.5247 72.7438 31.5247C73.1009 31.5247 73.3316 31.8006 73.3316 32.2777H73.339ZM78.1753 32.0466C78.0265 31.9646 77.9223 31.8378 77.9223 31.644C77.9223 31.4129 78.0711 31.2638 78.3018 31.2638C78.406 31.2638 78.5101 31.3085 78.6812 31.4129C78.9937 31.644 79.3955 31.8155 79.894 31.8155C80.519 31.8155 80.9208 31.48 80.9208 30.9581C80.9208 30.4362 80.4 30.1603 79.7452 29.8695C78.8449 29.4744 78.1753 29.0718 78.1753 28.1473C78.1753 27.2227 78.9119 26.5741 79.9982 26.5741C80.519 26.5741 80.9431 26.6785 81.2333 26.85C81.4417 26.9543 81.5681 27.0811 81.5681 27.2675C81.5681 27.4539 81.4417 27.6477 81.211 27.6477C81.1068 27.6477 80.9803 27.5881 80.9208 27.5657C80.6902 27.4613 80.4 27.3569 80.0205 27.3569C79.3732 27.3569 79.0161 27.7148 79.0161 28.11C79.0161 28.6766 79.6411 28.9077 80.2735 29.1836C81.092 29.5415 81.7616 29.959 81.7616 30.9282C81.7616 31.9795 80.9208 32.5834 79.8568 32.5834C79.2914 32.5834 78.7036 32.4567 78.1827 32.0615L78.1753 32.0466ZM87.4387 32.1286C87.4387 32.3374 87.2675 32.5089 87.0592 32.5089H84.3137C84.083 32.5089 83.9119 32.3225 83.9119 32.0913V27.0736C83.9119 26.8425 84.083 26.6561 84.3137 26.6561H86.955C87.1634 26.6561 87.3345 26.8276 87.3345 27.0587C87.3345 27.2675 87.1708 27.4166 86.955 27.4166H84.7527V29.1836H86.7244C86.9327 29.1836 87.1038 29.3551 87.1038 29.5415C87.1038 29.7502 86.9327 29.9217 86.7244 29.9217H84.7527V31.7707H87.0592C87.2675 31.7707 87.4387 31.9348 87.4387 32.151V32.1286ZM93.7258 32.1286C93.7258 32.3597 93.5398 32.5238 93.3092 32.5238C93.1827 32.5238 93.0562 32.479 92.9743 32.3523L91.3002 30.2125H90.3776V32.1212C90.3776 32.3523 90.2065 32.5163 89.961 32.5163C89.7303 32.5163 89.5443 32.3448 89.5443 32.1212V27.0587C89.5443 26.8276 89.7303 26.6412 89.961 26.6412H91.3002C92.58 26.6412 93.2868 27.4166 93.2868 28.4082C93.2868 29.1836 92.8255 29.7726 92.1559 30.0485L93.5993 31.8304C93.6812 31.9124 93.7258 32.0168 93.7258 32.1212V32.1286ZM90.3776 29.4818H91.2333C91.9699 29.4818 92.4238 29.1016 92.4238 28.4529C92.4238 27.7596 91.9401 27.4017 91.2482 27.4017H90.3702V29.4818H90.3776ZM100.095 27.0065C100.095 27.0662 100.073 27.1556 100.05 27.2153L98.0785 32.1286C97.9743 32.4045 97.766 32.5238 97.5577 32.5238C97.327 32.5238 97.1187 32.4194 97.0145 32.1286L95.0651 27.2824C95.0205 27.178 95.0205 27.096 95.0205 27.0289C95.0205 26.7978 95.1916 26.6114 95.4371 26.6114C95.5859 26.6114 95.7496 26.7158 95.8166 26.9021C96.4267 28.3709 97.0145 29.9068 97.5577 31.4129C98.1231 29.8994 98.7333 28.3709 99.2764 26.9171C99.3806 26.6859 99.5071 26.6039 99.6931 26.6039C99.9237 26.6039 100.095 26.7679 100.095 26.9991V27.0065ZM102.022 32.1286V27.0289C102.022 26.7978 102.208 26.6114 102.439 26.6114C102.692 26.6114 102.855 26.7978 102.855 27.0289V32.1286C102.855 32.3597 102.684 32.5238 102.439 32.5238C102.208 32.5238 102.022 32.3523 102.022 32.1286ZM109.336 32.1286C109.336 32.3374 109.165 32.5089 108.942 32.5089H105.363C105.11 32.5089 104.901 32.3001 104.901 32.0466C104.901 31.8975 104.961 31.7931 105.073 31.6664L108.257 27.4017H105.348C105.095 27.4017 104.953 27.2377 104.953 27.0214C104.953 26.835 105.102 26.6412 105.348 26.6412H108.823C109.113 26.6412 109.328 26.8947 109.328 27.1482C109.328 27.2749 109.269 27.3793 109.157 27.5284L105.995 31.7484H108.949C109.18 31.7484 109.343 31.9124 109.343 32.1286H109.336ZM111.367 32.1286V27.0289C111.367 26.7978 111.553 26.6114 111.784 26.6114C112.037 26.6114 112.2 26.7978 112.2 27.0289V32.1286C112.2 32.3597 112.029 32.5238 111.784 32.5238C111.553 32.5238 111.367 32.3523 111.367 32.1286ZM115.511 32.2777C115.511 32.904 115.095 33.5154 114.715 33.8956C114.633 33.9553 114.567 34 114.507 34C114.358 34 114.254 33.8733 114.254 33.7689C114.254 33.7092 114.276 33.6421 114.336 33.5825C114.611 33.247 114.797 32.9562 114.842 32.576C114.567 32.5312 114.381 32.3448 114.381 32.069C114.381 31.7782 114.611 31.5247 114.924 31.5247C115.281 31.5247 115.511 31.8006 115.511 32.2777ZM120.311 32.0466C120.184 31.9646 120.058 31.8378 120.058 31.644C120.058 31.4129 120.229 31.2638 120.437 31.2638C120.564 31.2638 120.668 31.3085 120.839 31.4129C121.151 31.644 121.568 31.8155 122.074 31.8155C122.684 31.8155 123.101 31.48 123.101 30.9581C123.101 30.4362 122.58 30.1603 121.925 29.8695C121.003 29.4744 120.333 29.0718 120.333 28.1473C120.333 27.2227 121.069 26.5741 122.178 26.5741C122.684 26.5741 123.123 26.6785 123.413 26.85C123.599 26.9543 123.748 27.0811 123.748 27.2675C123.748 27.4539 123.622 27.6477 123.391 27.6477C123.287 27.6477 123.16 27.5881 123.078 27.5657C122.848 27.4613 122.558 27.3569 122.178 27.3569C121.531 27.3569 121.196 27.7148 121.196 28.11C121.196 28.6766 121.821 28.9077 122.431 29.1836C123.25 29.5415 123.941 29.959 123.941 30.9282C123.941 31.9795 123.086 32.5834 122.037 32.5834C121.471 32.5834 120.883 32.4567 120.318 32.0615L120.311 32.0466ZM126.047 32.1286V27.0289C126.047 26.7978 126.233 26.6114 126.464 26.6114C126.717 26.6114 126.88 26.7978 126.88 27.0289V32.1286C126.88 32.3597 126.717 32.5238 126.464 32.5238C126.233 32.5238 126.047 32.3523 126.047 32.1286ZM129.232 32.0466C129.083 31.9646 128.979 31.8378 128.979 31.644C128.979 31.4129 129.127 31.2638 129.358 31.2638C129.462 31.2638 129.566 31.3085 129.738 31.4129C130.05 31.644 130.452 31.8155 130.95 31.8155C131.575 31.8155 131.977 31.48 131.977 30.9581C131.977 30.4362 131.456 30.1603 130.802 29.8695C129.901 29.4744 129.232 29.0718 129.232 28.1473C129.232 27.2227 129.961 26.5741 131.055 26.5741C131.575 26.5741 131.999 26.6785 132.29 26.85C132.498 26.9543 132.624 27.0811 132.624 27.2675C132.624 27.4539 132.498 27.6477 132.29 27.6477C132.163 27.6477 132.037 27.5881 131.977 27.5657C131.747 27.4613 131.456 27.3569 131.077 27.3569C130.43 27.3569 130.072 27.7148 130.072 28.11C130.072 28.6766 130.697 28.9077 131.33 29.1836C132.148 29.5415 132.818 29.959 132.818 30.9282C132.818 31.9795 131.977 32.5834 130.913 32.5834C130.348 32.5834 129.76 32.4567 129.239 32.0615L129.232 32.0466ZM139.038 27.0289C139.038 27.26 138.889 27.4091 138.659 27.4091H137.111V32.1361C137.111 32.3672 136.925 32.5312 136.694 32.5312C136.441 32.5312 136.278 32.3597 136.278 32.1361V27.4091H134.686C134.477 27.4091 134.306 27.26 134.306 27.0289C134.306 26.8201 134.47 26.6487 134.686 26.6487H138.666C138.897 26.6487 139.046 26.8201 139.046 27.0289H139.038ZM144.485 32.1286C144.485 32.3374 144.313 32.5089 144.083 32.5089H141.337C141.107 32.5089 140.935 32.3225 140.935 32.0913V27.0736C140.935 26.8425 141.107 26.6561 141.337 26.6561H143.979C144.209 26.6561 144.373 26.8276 144.373 27.0587C144.373 27.2675 144.209 27.4166 143.979 27.4166H141.776V29.1836H143.748C143.979 29.1836 144.127 29.3551 144.127 29.5415C144.127 29.7502 143.979 29.9217 143.748 29.9217H141.776V31.7707H144.083C144.313 31.7707 144.485 31.9348 144.485 32.151V32.1286ZM152.133 27.1556V32.1286C152.133 32.3597 151.962 32.5238 151.732 32.5238C151.501 32.5238 151.315 32.3523 151.315 32.1286V28.0578L149.849 30.5107C149.723 30.6971 149.574 30.8462 149.343 30.8462C149.135 30.8462 148.986 30.7195 148.86 30.5107L147.394 28.0727V32.1212C147.394 32.3523 147.208 32.5163 146.977 32.5163C146.746 32.5163 146.575 32.3448 146.575 32.1212V27.1706C146.575 26.835 146.806 26.6039 147.096 26.6039C147.327 26.6039 147.513 26.7083 147.662 26.9618L149.358 29.9217L151.054 26.9618C151.203 26.7083 151.367 26.6039 151.598 26.6039C151.888 26.6039 152.118 26.835 152.118 27.1482L152.133 27.1556ZM154.671 32.1286V27.0289C154.671 26.7978 154.842 26.6114 155.087 26.6114C155.333 26.6114 155.504 26.7978 155.504 27.0289V32.1286C155.504 32.3597 155.333 32.5238 155.087 32.5238C154.842 32.5238 154.671 32.3523 154.671 32.1286ZM157.647 31.9795C157.647 31.6887 157.922 31.4129 158.235 31.4129C158.525 31.4129 158.8 31.6887 158.8 31.9795C158.8 32.2926 158.525 32.5461 158.235 32.5461C157.922 32.5461 157.647 32.2926 157.647 31.9795Z" fill="white"/>
</svg>
