<svg width="48" height="48" viewBox="0 0 48 48" fill="none" xmlns="http://www.w3.org/2000/svg">
<mask id="mask0_4955_6950" style="mask-type:alpha" maskUnits="userSpaceOnUse" x="12" y="12" width="24" height="24">
<rect x="12" y="36" width="24" height="24" transform="rotate(-90 12 36)" fill="#D9D9D9"/>
</mask>
<g mask="url(#mask0_4955_6950)">
<path d="M15.3176 28.6958C15.1148 28.4982 15.0091 28.2745 15.0005 28.0247C14.9919 27.7749 15.0867 27.551 15.2848 27.3528L23.2648 19.3728C23.3906 19.247 23.5215 19.1534 23.6576 19.092C23.7936 19.0307 23.9449 19 24.1114 19C24.2779 19 24.4285 19.0307 24.5631 19.092C24.6976 19.1534 24.828 19.2472 24.9542 19.3733L32.9498 27.327C33.1372 27.4976 33.2308 27.7147 33.2308 27.9782C33.2308 28.2417 33.1341 28.4674 32.9407 28.6552C32.7379 28.8529 32.5073 28.9517 32.2489 28.9517C31.9905 28.9517 31.7623 28.8526 31.5642 28.6545L24.1092 21.2416L16.6381 28.7385C16.4703 28.9259 16.2566 29.0125 15.9971 28.9985C15.7375 28.9845 15.511 28.8836 15.3176 28.6958Z" fill="#006EE6"/>
</g>
</svg>
