<svg width="15" height="14" viewBox="0 0 15 14" fill="none" xmlns="http://www.w3.org/2000/svg">
<path d="M7.33168 13.75C7.11908 13.75 6.94099 13.6781 6.79741 13.5344C6.65382 13.3906 6.58203 13.2125 6.58203 13V7.74995H1.33201C1.11951 7.74995 0.94139 7.67805 0.797656 7.53425C0.653906 7.39043 0.582031 7.21223 0.582031 6.99965C0.582031 6.78705 0.653906 6.60896 0.797656 6.46538C0.94139 6.32179 1.11951 6.25 1.33201 6.25H6.58203V0.999975C6.58203 0.787475 6.65393 0.60935 6.79773 0.4656C6.94155 0.321866 7.11975 0.25 7.33233 0.25C7.54493 0.25 7.72302 0.321866 7.86661 0.4656C8.01019 0.60935 8.08198 0.787475 8.08198 0.999975V6.25H13.332C13.5445 6.25 13.7226 6.3219 13.8664 6.4657C14.0101 6.60952 14.082 6.78772 14.082 7.0003C14.082 7.2129 14.0101 7.39099 13.8664 7.53457C13.7226 7.67816 13.5445 7.74995 13.332 7.74995H8.08198V13C8.08198 13.2125 8.01008 13.3906 7.86628 13.5344C7.72246 13.6781 7.54426 13.75 7.33168 13.75Z" fill="#006EE6"/>
</svg>
