<svg width="32" height="30" viewBox="0 0 32 30" fill="none" xmlns="http://www.w3.org/2000/svg">
<path fill-rule="evenodd" clip-rule="evenodd" d="M10.5991 28.7341C10.8879 29.0229 11.2456 29.1672 11.6724 29.1672H20.3262C20.753 29.1672 21.1108 29.0229 21.3995 28.7341C21.6882 28.4454 21.8326 28.0876 21.8326 27.6608V25.8339H28.8198C29.6483 25.8339 30.3576 25.5389 30.9476 24.9489C31.5376 24.3589 31.8326 23.6496 31.8326 22.8211V3.84682C31.8326 3.01829 31.5376 2.30903 30.9476 1.71903C30.3576 1.129 29.6483 0.833984 28.8198 0.833984H3.17885C2.35032 0.833984 1.64106 1.129 1.05106 1.71903C0.461029 2.30903 0.166016 3.01829 0.166016 3.84682V22.8211C0.166016 23.6496 0.461029 24.3589 1.05106 24.9489C1.64106 25.5389 2.35032 25.8339 3.17885 25.8339H10.166V27.6608C10.166 28.0876 10.3104 28.4454 10.5991 28.7341ZM16.3057 20.9535L18.2392 16.4481C18.4077 16.0554 18.7207 15.7424 19.1135 15.5738L23.6189 13.6403C23.8881 13.5248 23.8881 13.1432 23.6189 13.0277L19.1135 11.0942C18.7207 10.9256 18.4077 10.6126 18.2392 10.2198L16.3057 5.71442C16.1901 5.44526 15.8085 5.44525 15.693 5.71442L13.7595 10.2198C13.591 10.6126 13.278 10.9256 12.8852 11.0942L8.37979 13.0277C8.11062 13.1432 8.11062 13.5248 8.37979 13.6403L12.8852 15.5738C13.278 15.7424 13.591 16.0554 13.7595 16.4481L15.693 20.9535C15.8085 21.2227 16.1901 21.2227 16.3057 20.9535Z" fill="#006EE6"/>
</svg>
