<svg width="32" height="32" viewBox="0 0 32 32" fill="none" xmlns="http://www.w3.org/2000/svg">
<mask id="mask0_3349_23979" style="mask-type:alpha" maskUnits="userSpaceOnUse" x="0" y="0" width="32" height="32">
<rect width="32" height="32" fill="#D9D9D9"/>
</mask>
<g mask="url(#mask0_3349_23979)">
<path d="M16.0006 22.3339C16.284 22.3339 16.5215 22.2381 16.7129 22.0465C16.9044 21.8548 17.0001 21.6173 17.0001 21.334V15.6673C17.0001 15.3839 16.9042 15.1465 16.7125 14.9548C16.5207 14.7631 16.2831 14.6673 15.9997 14.6673C15.7162 14.6673 15.4788 14.7631 15.2873 14.9548C15.0959 15.1465 15.0002 15.3839 15.0002 15.6673V21.334C15.0002 21.6173 15.096 21.8548 15.2878 22.0465C15.4795 22.2381 15.7171 22.3339 16.0006 22.3339ZM16.0001 12.3853C16.3053 12.3853 16.561 12.2821 16.7674 12.0757C16.9738 11.8693 17.077 11.6135 17.077 11.3084C17.077 11.0032 16.9738 10.7475 16.7674 10.5411C16.561 10.3347 16.3053 10.2315 16.0001 10.2315C15.695 10.2315 15.4392 10.3347 15.2328 10.5411C15.0264 10.7475 14.9232 11.0032 14.9232 11.3084C14.9232 11.6135 15.0264 11.8693 15.2328 12.0757C15.4392 12.2821 15.695 12.3853 16.0001 12.3853ZM16.0024 28.6673C14.2505 28.6673 12.6037 28.3348 11.0622 27.6699C9.5207 27.005 8.17979 26.1027 7.0395 24.9629C5.89919 23.8231 4.99644 22.4828 4.33126 20.942C3.66609 19.4011 3.3335 17.7548 3.3335 16.0029C3.3335 14.2509 3.66594 12.6042 4.33083 11.0627C4.99572 9.52118 5.89805 8.18027 7.03783 7.03998C8.17763 5.89967 9.51795 4.99693 11.0588 4.33175C12.5996 3.66657 14.246 3.33398 15.9979 3.33398C17.7498 3.33398 19.3965 3.66643 20.938 4.33132C22.4796 4.99621 23.8205 5.89854 24.9608 7.03832C26.1011 8.17812 27.0038 9.51844 27.669 11.0593C28.3342 12.6001 28.6668 14.2465 28.6668 15.9984C28.6668 17.7503 28.3343 19.397 27.6694 20.9385C27.0045 22.4801 26.1022 23.821 24.9624 24.9613C23.8226 26.1016 22.4823 27.0043 20.9415 27.6695C19.4006 28.3347 17.7543 28.6673 16.0024 28.6673Z" fill="#006EE6"/>
</g>
</svg>
