<svg width="64" height="64" viewBox="0 0 64 64" fill="none" xmlns="http://www.w3.org/2000/svg">
<path d="M32 0.5C37.9716 0.5 40.8844 0.502554 43.2969 0.982422C53.2537 2.96301 61.037 10.7463 63.0176 20.7031C63.4974 23.1156 63.5 26.0284 63.5 32C63.5 37.9716 63.4974 40.8844 63.0176 43.2969C61.037 53.2537 53.2537 61.037 43.2969 63.0176C40.8844 63.4974 37.9716 63.5 32 63.5C26.0284 63.5 23.1156 63.4974 20.7031 63.0176C10.7463 61.037 2.96301 53.2537 0.982422 43.2969C0.502554 40.8844 0.5 37.9716 0.5 32C0.5 26.0284 0.502554 23.1156 0.982422 20.7031C2.96301 10.7463 10.7463 2.96301 20.7031 0.982422C23.1156 0.502554 26.0284 0.5 32 0.5Z" fill="white"/>
<path d="M32 0.5C37.9716 0.5 40.8844 0.502554 43.2969 0.982422C53.2537 2.96301 61.037 10.7463 63.0176 20.7031C63.4974 23.1156 63.5 26.0284 63.5 32C63.5 37.9716 63.4974 40.8844 63.0176 43.2969C61.037 53.2537 53.2537 61.037 43.2969 63.0176C40.8844 63.4974 37.9716 63.5 32 63.5C26.0284 63.5 23.1156 63.4974 20.7031 63.0176C10.7463 61.037 2.96301 53.2537 0.982422 43.2969C0.502554 40.8844 0.5 37.9716 0.5 32C0.5 26.0284 0.502554 23.1156 0.982422 20.7031C2.96301 10.7463 10.7463 2.96301 20.7031 0.982422C23.1156 0.502554 26.0284 0.5 32 0.5Z" stroke="#D9D9D9"/>
<mask id="mask0_3349_23459" style="mask-type:alpha" maskUnits="userSpaceOnUse" x="16" y="16" width="32" height="32">
<rect x="16" y="16" width="32" height="32" fill="#D9D9D9"/>
</mask>
<g mask="url(#mask0_3349_23459)">
<path d="M30.3642 32.0717L26.9052 41.6203C26.883 41.6786 26.8275 41.7521 26.7386 41.841L25.9926 42.5537C25.8352 42.7026 25.663 42.7398 25.4759 42.6653C25.2888 42.5909 25.1772 42.4589 25.1412 42.2693L25.0209 41.2717C25.0122 41.2546 25.0234 41.1589 25.0542 40.9847L28.6209 31.1387C28.8771 31.3727 29.1506 31.5653 29.4412 31.7167C29.7319 31.868 30.0396 31.9863 30.3642 32.0717ZM32.0002 30.3333C30.9831 30.3333 30.1178 29.9764 29.4042 29.2627C28.6905 28.5491 28.3336 27.6838 28.3336 26.6667C28.3336 25.8 28.5942 25.0513 29.1156 24.4207C29.6369 23.7898 30.2651 23.3794 31.0002 23.1897V21C31.0002 20.7162 31.096 20.4787 31.2876 20.2873C31.4789 20.0958 31.7165 20 32.0002 20C32.284 20 32.5216 20.0958 32.7129 20.2873C32.9045 20.4787 33.0002 20.7162 33.0002 21V23.1897C33.7354 23.3794 34.3636 23.7898 34.8849 24.4207C35.4062 25.0513 35.6669 25.8 35.6669 26.6667C35.6669 27.6838 35.31 28.5491 34.5962 29.2627C33.8827 29.9764 33.0174 30.3333 32.0002 30.3333ZM32.0002 28.3333C32.4636 28.3333 32.8571 28.1713 33.1809 27.8473C33.5049 27.5236 33.6669 27.13 33.6669 26.6667C33.6669 26.2033 33.5049 25.8098 33.1809 25.486C32.8571 25.162 32.4636 25 32.0002 25C31.5369 25 31.1434 25.162 30.8196 25.486C30.4956 25.8098 30.3336 26.2033 30.3336 26.6667C30.3336 27.13 30.4956 27.5236 30.8196 27.8473C31.1434 28.1713 31.5369 28.3333 32.0002 28.3333ZM33.6362 32.0717C33.9609 31.9863 34.2686 31.868 34.5592 31.7167C34.8499 31.5653 35.1191 31.3727 35.3669 31.1387L38.9336 40.9847C38.9471 41.0256 38.9582 41.1212 38.9669 41.2717L38.8462 42.2693C38.8105 42.4589 38.699 42.5909 38.5119 42.6653C38.3246 42.7398 38.1524 42.7026 37.9952 42.5537L37.2489 41.841L37.0822 41.6203L33.6362 32.0717Z" fill="#006EE6"/>
</g>
</svg>
