<svg width="24" height="24" viewBox="0 0 24 24" fill="none" xmlns="http://www.w3.org/2000/svg">
<mask id="mask0_4907_2150" style="mask-type:alpha" maskUnits="userSpaceOnUse" x="0" y="0" width="24" height="24">
<rect y="24" width="24" height="24" transform="rotate(-90 0 24)" fill="#D9D9D9"/>
</mask>
<g mask="url(#mask0_4907_2150)">
<path d="M12.0722 17C11.915 17 11.7663 16.972 11.6262 16.916C11.4862 16.86 11.3515 16.7673 11.2222 16.6381L3.243 8.65876C3.07279 8.48855 2.992 8.26018 3.00062 7.97365C3.00922 7.68709 3.09863 7.45872 3.26884 7.28854C3.48428 7.0731 3.71265 6.9783 3.95395 7.00415C4.19527 7.03001 4.41503 7.13342 4.61322 7.31438L12.0722 14.7734L19.5312 7.31438C19.7014 7.14417 19.9271 7.04776 20.2083 7.02516C20.4894 7.00253 20.7205 7.09894 20.9014 7.31438C21.1169 7.49535 21.209 7.71942 21.1778 7.98659C21.1465 8.25374 21.0458 8.48643 20.8756 8.68464L12.9222 16.6381C12.7929 16.7673 12.6609 16.86 12.5263 16.916C12.3916 16.972 12.2403 17 12.0722 17Z" fill="#006EE6"/>
</g>
</svg>
