<svg width="19" height="10" viewBox="0 0 19 10" fill="none" xmlns="http://www.w3.org/2000/svg">
<path d="M9.07222 10C8.91495 10 8.76629 9.97199 8.62625 9.91597C8.48621 9.85996 8.35154 9.76732 8.22225 9.63806L0.242998 1.65876C0.0727883 1.48855 -0.00800252 1.26018 0.00062421 0.973653C0.00922293 0.687094 0.0986274 0.458724 0.268837 0.288542C0.484281 0.0730978 0.712652 -0.0216975 0.953948 0.00415468C1.19527 0.0300069 1.41503 0.133416 1.61322 0.314381L9.07222 7.77338L16.5312 0.314381C16.7014 0.144171 16.9271 0.0477645 17.2083 0.0251613C17.4894 0.00253016 17.7205 0.0989368 17.9014 0.314381C18.1169 0.495346 18.209 0.719417 18.1778 0.986594C18.1465 1.25374 18.0458 1.48643 17.8756 1.68464L9.92219 9.63806C9.7929 9.76732 9.66094 9.85996 9.5263 9.91597C9.39163 9.97199 9.24027 10 9.07222 10Z" fill="white"/>
</svg>
