<svg width="1130" height="258" viewBox="0 0 1130 258" fill="none" xmlns="http://www.w3.org/2000/svg">
<g clip-path="url(#clip0_3349_23523)">
<path d="M0 8C0 3.58173 3.58172 0 8 0H1122C1126.42 0 1130 3.58172 1130 8V250C1130 254.418 1126.42 258 1122 258H8.00002C3.58174 258 0 254.418 0 250V8Z" fill="#F5F9FF"/>
<g style="mix-blend-mode:plus-darker" opacity="0.1">
<path d="M1175.31 1.18164L1175.31 151.509L1024.98 151.509C1024.98 68.4856 1092.29 1.18164 1175.31 1.18164Z" fill="#065EF9"/>
<path d="M1024.98 151.51L874.657 151.51L874.657 1.18224C957.68 1.18225 1024.98 68.4862 1024.98 151.51Z" fill="#065EF9" fill-opacity="0.5"/>
<path d="M874.656 1.18164L874.656 151.509L724.329 151.509C724.329 68.4856 791.633 1.18164 874.656 1.18164Z" fill="#004DD6"/>
<path d="M1024.98 301.836L1024.98 151.508L1175.31 151.508C1175.31 234.532 1108.01 301.836 1024.98 301.836Z" fill="#065EF9" fill-opacity="0.75"/>
<path opacity="0.8" d="M724.328 301.836L724.328 151.508L874.656 151.508C874.656 234.532 807.352 301.836 724.328 301.836Z" fill="#065EF9" fill-opacity="0.75"/>
<path d="M724.328 151.51L724.328 301.837L574.001 301.837C574.001 218.814 641.305 151.51 724.328 151.51Z" fill="#065EF9"/>
<path d="M874.656 151.51L1024.98 151.51V301.837C941.96 301.837 874.656 234.533 874.656 151.51Z" fill="#065EF9" fill-opacity="0.25"/>
<rect x="574" y="1.18164" width="150.328" height="150.328" rx="75.1638" fill="#065EF9" fill-opacity="0.5"/>
</g>
</g>
<defs>
<clipPath id="clip0_3349_23523">
<path d="M0 8C0 3.58173 3.58172 0 8 0H1122C1126.42 0 1130 3.58172 1130 8V250C1130 254.418 1126.42 258 1122 258H8.00002C3.58174 258 0 254.418 0 250V8Z" fill="white"/>
</clipPath>
</defs>
</svg>
