<svg width="30" height="30" viewBox="0 0 30 30" fill="none" xmlns="http://www.w3.org/2000/svg">
<path fill-rule="evenodd" clip-rule="evenodd" d="M1.70898 28.2922C2.29232 28.8756 3.00493 29.1672 3.84682 29.1672H26.1544C26.9963 29.1672 27.7089 28.8756 28.2922 28.2922C28.8756 27.7089 29.1672 26.9963 29.1672 26.1544V8.68653L21.3147 0.833984H3.84682C3.00493 0.833984 2.29232 1.12565 1.70898 1.70898C1.12565 2.29232 0.833984 3.00493 0.833984 3.84682V26.1544C0.833984 26.9963 1.12565 27.7089 1.70898 28.2922ZM26.6673 10.0006H20.0006V3.33394L26.6673 10.0006ZM11.1353 22.1801L15.6417 19.4461L20.148 22.1801L18.9525 17.0551L22.9493 13.6096L17.6897 13.1673L15.6417 8.33398L13.5936 13.1673L8.33398 13.6096L12.3308 17.0551L11.1353 22.1801Z" fill="#006EE6"/>
</svg>
