<svg width="16" height="16" viewBox="0 0 16 16" fill="none" xmlns="http://www.w3.org/2000/svg">
<path d="M7.99997 11.2376C7.87946 11.2376 7.76728 11.2184 7.66345 11.18C7.5596 11.1415 7.46088 11.0755 7.3673 10.9819L4.2577 7.87232C4.11925 7.73386 4.04842 7.55981 4.04522 7.3502C4.04201 7.1406 4.11283 6.96336 4.2577 6.8185C4.40257 6.67363 4.58077 6.59863 4.7923 6.5935C5.00383 6.58836 5.18204 6.65823 5.32692 6.8031L7.25 8.7262V1.07615C7.25 0.86333 7.32179 0.68513 7.46537 0.541547C7.60896 0.397963 7.78716 0.326172 7.99997 0.326172C8.21279 0.326172 8.39099 0.397963 8.53458 0.541547C8.67816 0.68513 8.74995 0.86333 8.74995 1.07615V8.7262L10.673 6.8031C10.8115 6.66465 10.9881 6.59638 11.2028 6.5983C11.4176 6.60023 11.5974 6.67363 11.7422 6.8185C11.8871 6.96336 11.9595 7.139 11.9595 7.3454C11.9595 7.5518 11.8871 7.72744 11.7422 7.87232L8.63265 10.9819C8.53907 11.0755 8.44035 11.1415 8.3365 11.18C8.23267 11.2184 8.12049 11.2376 7.99997 11.2376ZM2.3077 15.4992C1.80257 15.4992 1.375 15.3242 1.025 14.9742C0.675 14.6242 0.5 14.1966 0.5 13.6915V11.7492C0.5 11.5364 0.5718 11.3582 0.7154 11.2146C0.858983 11.071 1.03718 10.9992 1.25 10.9992C1.46282 10.9992 1.64102 11.071 1.7846 11.2146C1.92818 11.3582 1.99997 11.5364 1.99997 11.7492V13.6915C1.99997 13.7684 2.03202 13.839 2.09612 13.9031C2.16024 13.9672 2.23077 13.9992 2.3077 13.9992H13.6922C13.7692 13.9992 13.8397 13.9672 13.9038 13.9031C13.9679 13.839 14 13.7684 14 13.6915V11.7492C14 11.5364 14.0718 11.3582 14.2154 11.2146C14.3589 11.071 14.5371 10.9992 14.75 10.9992C14.9628 10.9992 15.141 11.071 15.2845 11.2146C15.4281 11.3582 15.5 11.5364 15.5 11.7492V13.6915C15.5 14.1966 15.325 14.6242 14.975 14.9742C14.625 15.3242 14.1974 15.4992 13.6922 15.4992H2.3077Z" fill="#006EE6"/>
</svg>
