<svg width="25" height="24" viewBox="0 0 25 24" fill="none" xmlns="http://www.w3.org/2000/svg">
<mask id="mask0_3349_23625" style="mask-type:alpha" maskUnits="userSpaceOnUse" x="0" y="0" width="25" height="24">
<rect x="0.957031" width="24" height="24" fill="#D9D9D9"/>
</mask>
<g mask="url(#mask0_3349_23625)">
<path d="M14.207 11.7942L10.1743 15.8269C10.0358 15.9653 9.86341 16.033 9.65701 16.0298C9.45061 16.0266 9.27817 15.9557 9.13971 15.8173C9.00126 15.6788 8.93203 15.5042 8.93203 15.2936C8.93203 15.0829 9.00126 14.9094 9.13971 14.7731L13.1628 10.75H9.95701C9.74451 10.75 9.56639 10.678 9.42266 10.5342C9.27891 10.3904 9.20703 10.2122 9.20703 9.99965C9.20703 9.78705 9.27891 9.60896 9.42266 9.46538C9.56639 9.32179 9.74451 9.25 9.95701 9.25H14.8032C15.0592 9.25 15.2739 9.33662 15.4471 9.50985C15.6204 9.68308 15.707 9.89774 15.707 10.1538V15C15.707 15.2125 15.6351 15.3906 15.4913 15.5344C15.3475 15.6781 15.1693 15.75 14.9567 15.75C14.7441 15.75 14.566 15.6781 14.4224 15.5344C14.2788 15.3906 14.207 15.2125 14.207 15V11.7942ZM13.707 4.99997C13.4945 4.99997 13.3164 4.92807 13.1726 4.78425C13.0289 4.64045 12.957 4.46225 12.957 4.24965C12.957 4.03707 13.0289 3.85898 13.1726 3.7154C13.3164 3.5718 13.4945 3.5 13.707 3.5H19.6493C20.1464 3.5 20.572 3.67701 20.926 4.03102C21.28 4.38503 21.457 4.81058 21.457 5.3077V11.25C21.457 11.4625 21.3851 11.6406 21.2413 11.7844C21.0974 11.9281 20.9192 12 20.7067 12C20.4941 12 20.316 11.9281 20.1724 11.7844C20.0288 11.6406 19.957 11.4625 19.957 11.25V5.3077C19.957 5.21795 19.9282 5.14423 19.8705 5.08653C19.8128 5.02883 19.739 4.99997 19.6493 4.99997H13.707ZM6.26473 20.5C5.7596 20.5 5.33203 20.325 4.98203 19.975C4.63203 19.625 4.45703 19.1974 4.45703 18.6923V4.25C4.45703 4.0375 4.52894 3.85938 4.67276 3.71563C4.81657 3.57188 4.99477 3.5 5.20736 3.5C5.41996 3.5 5.59805 3.57188 5.74163 3.71563C5.88521 3.85938 5.95701 4.0375 5.95701 4.25V18.6923C5.95701 18.7692 5.98906 18.8397 6.05316 18.9038C6.11727 18.9679 6.1878 19 6.26473 19H20.707C20.9195 19 21.0976 19.0719 21.2414 19.2157C21.3851 19.3595 21.457 19.5377 21.457 19.7503C21.457 19.9629 21.3851 20.141 21.2414 20.2845C21.0976 20.4282 20.9195 20.5 20.707 20.5H6.26473Z" fill="white"/>
</g>
</svg>
