<svg width="32" height="32" viewBox="0 0 32 32" fill="none" xmlns="http://www.w3.org/2000/svg">
<mask id="mask0_3349_24028" style="mask-type:alpha" maskUnits="userSpaceOnUse" x="0" y="0" width="32" height="32">
<rect width="32" height="32" fill="#D9D9D9"/>
</mask>
<g mask="url(#mask0_3349_24028)">
<path d="M14.1078 18.8622L11.0104 15.7648C10.8258 15.5801 10.5937 15.4857 10.3142 15.4814C10.0347 15.4771 9.79842 15.5716 9.60526 15.7648C9.41211 15.9579 9.31553 16.1921 9.31553 16.4673C9.31553 16.7425 9.41211 16.9767 9.60526 17.1698L13.2642 20.8288C13.5053 21.0698 13.7865 21.1903 14.1078 21.1903C14.4292 21.1903 14.7104 21.0698 14.9514 20.8288L22.3693 13.4109C22.554 13.2263 22.6484 12.9942 22.6527 12.7147C22.657 12.4352 22.5625 12.1989 22.3693 12.0058C22.1762 11.8126 21.942 11.716 21.6668 11.716C21.3916 11.716 21.1574 11.8126 20.9643 12.0058L14.1078 18.8622ZM16.0024 28.6673C14.2505 28.6673 12.6037 28.3348 11.0622 27.6699C9.5207 27.005 8.17979 26.1027 7.0395 24.9629C5.89919 23.8231 4.99644 22.4828 4.33126 20.942C3.66609 19.4011 3.3335 17.7548 3.3335 16.0029C3.3335 14.2509 3.66594 12.6042 4.33083 11.0627C4.99572 9.52118 5.89805 8.18027 7.03783 7.03998C8.17763 5.89967 9.51795 4.99693 11.0588 4.33175C12.5996 3.66657 14.246 3.33398 15.9979 3.33398C17.7498 3.33398 19.3965 3.66643 20.938 4.33132C22.4796 4.99621 23.8205 5.89854 24.9608 7.03832C26.1011 8.17812 27.0038 9.51844 27.669 11.0593C28.3342 12.6001 28.6668 14.2465 28.6668 15.9984C28.6668 17.7503 28.3343 19.397 27.6694 20.9385C27.0045 22.4801 26.1022 23.821 24.9624 24.9613C23.8226 26.1016 22.4823 27.0043 20.9415 27.6695C19.4006 28.3347 17.7543 28.6673 16.0024 28.6673Z" fill="#4F994D"/>
</g>
</svg>
