<svg width="18" height="18" viewBox="0 0 18 18" fill="none" xmlns="http://www.w3.org/2000/svg">
<path d="M1.99997 17.5C1.58749 17.5 1.23438 17.3531 0.940625 17.0593C0.646875 16.7656 0.5 16.4125 0.5 16V1.99997C0.5 1.58749 0.646875 1.23438 0.940625 0.940625C1.23438 0.646875 1.58749 0.5 1.99997 0.5H12.7884L17.5 5.21153V16C17.5 16.4125 17.3531 16.7656 17.0593 17.0593C16.7656 17.3531 16.4125 17.5 16 17.5H1.99997ZM1.99997 16H16V5.99998H12.9038C12.6477 5.99998 12.4331 5.91336 12.2598 5.74013C12.0866 5.56689 12 5.35223 12 5.09613V1.99997H1.99997V16ZM4.99998 13.5H13C13.2125 13.5 13.3906 13.428 13.5344 13.2842C13.6781 13.1404 13.75 12.9622 13.75 12.7496C13.75 12.537 13.6781 12.3589 13.5344 12.2154C13.3906 12.0718 13.2125 12 13 12H4.99998C4.78748 12 4.60936 12.0719 4.46563 12.2157C4.32188 12.3595 4.25 12.5377 4.25 12.7503C4.25 12.9629 4.32188 13.141 4.46563 13.2846C4.60936 13.4282 4.78748 13.5 4.99998 13.5ZM4.99998 5.99998H8.25C8.46248 5.99998 8.6406 5.92807 8.78435 5.78425C8.9281 5.64045 8.99998 5.46225 8.99998 5.24965C8.99998 5.03707 8.9281 4.85898 8.78435 4.7154C8.6406 4.5718 8.46248 4.5 8.25 4.5H4.99998C4.78748 4.5 4.60936 4.57191 4.46563 4.71573C4.32188 4.85954 4.25 5.03774 4.25 5.25033C4.25 5.46293 4.32188 5.64102 4.46563 5.7846C4.60936 5.92818 4.78748 5.99998 4.99998 5.99998ZM4.99998 9.74995H13C13.2125 9.74995 13.3906 9.67805 13.5344 9.53425C13.6781 9.39043 13.75 9.21223 13.75 8.99965C13.75 8.78705 13.6781 8.60896 13.5344 8.46538C13.3906 8.32179 13.2125 8.25 13 8.25H4.99998C4.78748 8.25 4.60936 8.3219 4.46563 8.4657C4.32188 8.60952 4.25 8.78772 4.25 9.0003C4.25 9.2129 4.32188 9.39099 4.46563 9.53457C4.60936 9.67816 4.78748 9.74995 4.99998 9.74995Z" fill="#03A6A0"/>
</svg>
