<svg width="536" height="240" viewBox="0 0 536 240" fill="none" xmlns="http://www.w3.org/2000/svg">
<g clip-path="url(#clip0_3349_22545)">
<rect width="536" height="240" rx="8" fill="#F5F9FF"/>
<circle cx="1.79252" cy="107.349" r="20.79" transform="rotate(180 1.79252 107.349)" fill="#E5F2FF"/>
<circle cx="35.7217" cy="107.349" r="20.79" transform="rotate(180 35.7217 107.349)" fill="#B3D6FF"/>
<circle cx="69.6514" cy="107.349" r="20.79" transform="rotate(180 69.6514 107.349)" fill="#4EA1FF"/>
<circle cx="103.581" cy="107.349" r="20.79" transform="rotate(180 103.581 107.349)" fill="#1B87FF"/>
<circle cx="137.51" cy="107.349" r="20.79" transform="rotate(180 137.51 107.349)" fill="#004DA2"/>
<path d="M207.087 23.7998H325.513C345.003 23.7998 360.8 39.4757 360.8 58.8066V342.193C360.8 361.524 345.003 377.2 325.513 377.2H207.087C187.597 377.2 171.8 361.524 171.8 342.193V58.8066C171.8 39.4758 187.597 23.8 207.087 23.7998ZM207.092 32.1143C192.25 32.1143 180.185 44.0797 180.185 58.8105V342.198C180.185 356.921 192.25 368.886 207.092 368.886H325.509C340.241 368.886 352.248 357.083 352.411 342.498H352.419V58.8105C352.419 44.0796 340.346 32.1143 325.513 32.1143H310.785V34.3594C310.785 40.3759 305.865 45.2598 299.795 45.2598H232.801C226.731 45.2598 221.811 40.3759 221.811 34.3594V32.1143H207.092Z" fill="white" stroke="#004DA2" stroke-width="0.6"/>
<path d="M293.83 64.7344H237.845C236.45 64.7344 235.319 65.8566 235.319 67.2403C235.319 68.624 236.45 69.7462 237.845 69.7462H293.83C295.225 69.7462 296.356 68.624 296.356 67.2403C296.356 65.8566 295.225 64.7344 293.83 64.7344Z" fill="#B3D6FF"/>
<path d="M277.359 83.5156H254.307C252.912 83.5156 251.781 84.6378 251.781 86.0215C251.781 87.4053 252.912 88.5274 254.307 88.5274H277.359C278.753 88.5274 279.884 87.4053 279.884 86.0215C279.884 84.6378 278.753 83.5156 277.359 83.5156Z" fill="#B3D6FF"/>
<g filter="url(#filter0_dd_3349_22545)">
<rect x="88.6968" y="108.699" width="177.6" height="109.2" rx="9.6" fill="white"/>
<rect x="88.9368" y="108.939" width="177.12" height="108.72" rx="9.36" stroke="#004DA2" stroke-width="0.48"/>
</g>
<path d="M177.682 194.045C194.891 194.045 208.84 180.095 208.84 162.887C208.84 145.678 194.891 131.729 177.682 131.729C160.474 131.729 146.524 145.678 146.524 162.887C146.524 180.095 160.474 194.045 177.682 194.045Z" fill="#E5F2FF"/>
<path d="M173.305 150.717L190.531 161.907C191.239 162.369 191.239 163.407 190.531 163.869L173.305 175.059C172.525 175.563 171.499 175.005 171.499 174.075V151.701C171.499 150.771 172.531 150.213 173.305 150.717Z" fill="#004DA2"/>
<rect x="304.4" y="131.2" width="147" height="23.64" rx="3.9" fill="white"/>
<rect x="304.4" y="131.2" width="147" height="23.64" rx="3.9" stroke="#004DA2" stroke-width="0.6"/>
<mask id="mask0_3349_22545" style="mask-type:alpha" maskUnits="userSpaceOnUse" x="433" y="137" width="13" height="12">
<rect x="433.82" y="137.26" width="11.52" height="11.52" fill="#D9D9D9"/>
</mask>
<g mask="url(#mask0_3349_22545)">
<path d="M442.948 146.884L440.186 144.122C439.946 144.32 439.67 144.476 439.358 144.588C439.046 144.7 438.723 144.756 438.39 144.756C437.57 144.756 436.875 144.471 436.307 143.903C435.739 143.335 435.455 142.641 435.455 141.821C435.455 141.001 435.739 140.306 436.307 139.738C436.875 139.169 437.569 138.885 438.389 138.885C439.209 138.885 439.904 139.169 440.472 139.737C441.041 140.305 441.325 141 441.325 141.82C441.325 142.163 441.268 142.49 441.153 142.802C441.038 143.114 440.884 143.386 440.692 143.616L443.466 146.39C443.532 146.455 443.566 146.535 443.566 146.63C443.566 146.725 443.528 146.81 443.453 146.885C443.384 146.954 443.3 146.988 443.201 146.988C443.102 146.988 443.018 146.954 442.948 146.884ZM438.39 144.036C439.008 144.036 439.532 143.821 439.962 143.392C440.391 142.962 440.605 142.439 440.605 141.82C440.605 141.202 440.391 140.678 439.962 140.249C439.532 139.819 439.008 139.605 438.39 139.605C437.771 139.605 437.248 139.819 436.818 140.249C436.389 140.678 436.175 141.202 436.175 141.82C436.175 142.439 436.389 142.962 436.818 143.392C437.248 143.821 437.771 144.036 438.39 144.036Z" fill="#006EE6"/>
</g>
</g>
<defs>
<filter id="filter0_dd_3349_22545" x="64.6968" y="88.6992" width="225.6" height="157.199" filterUnits="userSpaceOnUse" color-interpolation-filters="sRGB">
<feFlood flood-opacity="0" result="BackgroundImageFix"/>
<feColorMatrix in="SourceAlpha" type="matrix" values="0 0 0 0 0 0 0 0 0 0 0 0 0 0 0 0 0 0 127 0" result="hardAlpha"/>
<feOffset/>
<feGaussianBlur stdDeviation="0.22176"/>
<feComposite in2="hardAlpha" operator="out"/>
<feColorMatrix type="matrix" values="0 0 0 0 0 0 0 0 0 0 0 0 0 0 0 0 0 0 0.7 0"/>
<feBlend mode="normal" in2="BackgroundImageFix" result="effect1_dropShadow_3349_22545"/>
<feColorMatrix in="SourceAlpha" type="matrix" values="0 0 0 0 0 0 0 0 0 0 0 0 0 0 0 0 0 0 127 0" result="hardAlpha"/>
<feOffset dy="4"/>
<feGaussianBlur stdDeviation="12"/>
<feComposite in2="hardAlpha" operator="out"/>
<feColorMatrix type="matrix" values="0 0 0 0 0 0 0 0 0 0 0 0 0 0 0 0 0 0 0.1 0"/>
<feBlend mode="normal" in2="effect1_dropShadow_3349_22545" result="effect2_dropShadow_3349_22545"/>
<feBlend mode="normal" in="SourceGraphic" in2="effect2_dropShadow_3349_22545" result="shape"/>
</filter>
<clipPath id="clip0_3349_22545">
<rect width="536" height="240" rx="8" fill="white"/>
</clipPath>
</defs>
</svg>
