<svg width="333" height="280" viewBox="0 0 333 280" fill="none" xmlns="http://www.w3.org/2000/svg">
<path d="M0 8C0 3.58172 3.58172 0 8 0H325C329.418 0 333 3.58172 333 8V272C333 276.418 329.418 280 325 280H8C3.58172 280 0 276.418 0 272V8Z" fill="#F7F7F7"/>
<g clip-path="url(#clip0_3349_22695)">
<path d="M69.1012 56H219.422V106.854H69.0928V56H69.1012Z" fill="#0D0F0E"/>
<path d="M116.502 114.557H278V165.41H116.502V114.557Z" fill="#0E0E0F"/>
<path d="M69.1006 173.113H157.363V223.967H69.1006V173.113Z" fill="#0E0F0E"/>
<path d="M227.12 173.146H278V224H227.12V173.146Z" fill="#0E0F0F"/>
<path d="M101.315 81.8796C101.315 83.652 101.071 85.2816 100.584 86.7432C100.105 88.1964 99.3903 89.448 98.4322 90.4812C97.4825 91.5228 96.2891 92.3208 94.8519 92.9004C93.4148 93.4632 91.7339 93.7404 89.8177 93.7404H81.0771V70.002H89.8177C91.7423 70.002 93.4148 70.2876 94.8519 70.8588C96.2891 71.4216 97.4825 72.2196 98.4322 73.2612C99.3903 74.2944 100.113 75.5544 100.584 77.016C101.071 78.4692 101.315 80.0904 101.315 81.8628V81.8796ZM96.3311 81.4176C96.3311 80.4096 96.205 79.4772 95.9529 78.6204C95.7092 77.7468 95.3142 76.9908 94.7595 76.3524C94.2216 75.714 93.5156 75.21 92.6416 74.8488C91.7675 74.4708 90.717 74.286 89.4815 74.286H85.8845V89.4816H89.4815C90.7086 89.4816 91.7591 89.2968 92.6248 88.9356C93.4988 88.5576 94.2048 88.0536 94.7427 87.4152C95.2973 86.76 95.7008 86.004 95.9529 85.1304C96.205 84.2568 96.3311 83.3244 96.3311 82.3332V81.426V81.4176Z" fill="white"/>
<path d="M106.215 70.0201H122.217V74.3713H111.022V79.4197H121.343V83.7541H111.022V89.4157H122.864V93.7501H106.223V70.0117L106.215 70.0201Z" fill="white"/>
<path d="M129.259 87.08C129.57 87.4328 129.948 87.7772 130.385 88.1216C130.831 88.466 131.31 88.7768 131.839 89.0456C132.377 89.3144 132.966 89.5244 133.596 89.6924C134.226 89.8436 134.907 89.9276 135.63 89.9276C136.991 89.9276 138.025 89.6504 138.739 89.0876C139.471 88.5164 139.832 87.8192 139.832 87.0044C139.832 86.1896 139.513 85.5092 138.874 85.064C138.244 84.6188 137.243 84.2744 135.857 84.0224L135.109 83.888C134.117 83.7116 133.125 83.4764 132.142 83.1908C131.159 82.9052 130.268 82.4936 129.478 81.9476C128.679 81.41 128.041 80.7212 127.545 79.8812C127.049 79.0328 126.797 77.9576 126.797 76.6724C126.797 75.9248 126.965 75.1352 127.293 74.3204C127.62 73.4888 128.15 72.7328 128.864 72.0524C129.595 71.3552 130.528 70.7924 131.663 70.3472C132.814 69.902 134.201 69.6836 135.823 69.6836C137.748 69.6836 139.454 70.0028 140.958 70.6412C142.471 71.2712 143.69 72.1028 144.622 73.1444L141.429 76.1264C140.782 75.4124 139.941 74.8496 138.916 74.438C137.899 74.0264 136.848 73.8248 135.773 73.8248C134.529 73.8248 133.545 74.06 132.84 74.5388C132.142 75.0092 131.797 75.6308 131.797 76.3952C131.797 76.8908 131.907 77.3024 132.125 77.6384C132.36 77.966 132.68 78.2432 133.083 78.47C133.495 78.68 133.982 78.8564 134.554 78.9992C135.125 79.142 135.773 79.2848 136.479 79.4276L136.857 79.4948C137.806 79.6712 138.748 79.898 139.689 80.1752C140.63 80.444 141.479 80.8388 142.244 81.368C143.017 81.8888 143.639 82.5692 144.118 83.4176C144.597 84.2576 144.833 85.3328 144.833 86.6432C144.833 87.836 144.58 88.886 144.085 89.8016C143.589 90.7172 142.933 91.4984 142.11 92.1536C141.294 92.792 140.345 93.2792 139.277 93.6068C138.21 93.926 137.092 94.0856 135.932 94.0856C134.773 94.0856 133.672 93.9848 132.671 93.7832C131.68 93.5816 130.772 93.3044 129.957 92.9432C129.15 92.582 128.427 92.1704 127.788 91.7168C127.158 91.2632 126.612 90.776 126.133 90.2636L129.259 87.0884V87.08Z" fill="white"/>
<path d="M149.917 70.0195H154.716V93.7579H149.917V70.0195Z" fill="white"/>
<path d="M164.465 81.9478C164.465 82.9642 164.591 83.9386 164.844 84.8794C165.096 85.8202 165.482 86.6434 166.003 87.3658C166.524 88.0798 167.188 88.6594 167.987 89.1046C168.794 89.533 169.752 89.7514 170.87 89.7514C171.987 89.7514 172.828 89.5834 173.534 89.239C174.248 88.8946 174.82 88.4746 175.24 87.9622C175.668 87.4414 175.971 86.887 176.131 86.2906C176.307 85.6942 176.4 85.1398 176.4 84.6358V84.4006H170.323V80.7382H181.072V93.7498H176.862V90.9694C176.559 91.4314 176.19 91.8598 175.752 92.2462C175.307 92.6242 174.811 92.9434 174.265 93.2206C173.71 93.4894 173.105 93.6994 172.441 93.8506C171.794 94.0018 171.096 94.0858 170.357 94.0858C168.626 94.0858 167.079 93.7666 165.734 93.145C164.39 92.515 163.247 91.6498 162.322 90.5494C161.406 89.449 160.709 88.1554 160.221 86.677C159.742 85.1986 159.507 83.6026 159.507 81.8974C159.507 80.1922 159.776 78.613 160.305 77.1346C160.843 75.6478 161.608 74.3542 162.591 73.2622C163.583 72.1618 164.776 71.2882 166.172 70.6666C167.575 70.0282 169.138 69.709 170.878 69.709C172.004 69.709 173.071 69.8434 174.072 70.1038C175.089 70.3558 176.005 70.7254 176.837 71.2126C177.677 71.683 178.417 72.2626 179.055 72.9514C179.694 73.6234 180.215 74.371 180.61 75.2026L176.4 77.5714C176.147 77.0674 175.845 76.597 175.509 76.1602C175.164 75.715 174.769 75.3454 174.315 75.0346C173.878 74.7154 173.366 74.4634 172.794 74.287C172.223 74.1022 171.576 74.0098 170.87 74.0098C169.752 74.0098 168.794 74.2282 167.987 74.6734C167.18 75.1018 166.516 75.6814 166.003 76.3954C165.482 77.1094 165.096 77.9494 164.844 78.8986C164.591 79.8394 164.465 80.8054 164.465 81.8134V81.9814V81.9478Z" fill="white"/>
<path d="M191.133 75.5803V93.7579H186.334V70.0195H193.108L202.613 85.9627V70.0195H207.412V93.7579H202.126L191.133 75.5803Z" fill="white"/>
<path d="M133.428 145.637C133.739 145.99 134.117 146.334 134.554 146.679C135 147.023 135.479 147.326 136.008 147.603C136.546 147.872 137.135 148.082 137.765 148.25C138.395 148.401 139.076 148.485 139.799 148.485C141.16 148.485 142.194 148.199 142.908 147.636C143.64 147.065 144.001 146.368 144.001 145.553C144.001 144.738 143.682 144.058 143.043 143.613C142.412 143.176 141.412 142.823 140.026 142.571L139.278 142.437C138.286 142.26 137.294 142.025 136.311 141.74C135.328 141.454 134.437 141.042 133.647 140.496C132.848 139.959 132.21 139.27 131.714 138.43C131.218 137.582 130.966 136.506 130.966 135.221C130.966 134.474 131.134 133.684 131.462 132.869C131.789 132.038 132.319 131.29 133.033 130.601C133.764 129.904 134.697 129.341 135.832 128.896C136.983 128.451 138.37 128.232 139.992 128.232C141.917 128.232 143.623 128.552 145.127 129.19C146.64 129.82 147.858 130.652 148.791 131.693L145.598 134.675C144.951 133.961 144.11 133.398 143.085 132.987C142.068 132.575 141.017 132.374 139.942 132.374C138.698 132.374 137.714 132.609 137.008 133.088C136.311 133.566 135.966 134.18 135.966 134.944C135.966 135.44 136.076 135.851 136.294 136.187C136.529 136.515 136.849 136.792 137.252 137.019C137.664 137.229 138.151 137.405 138.723 137.548C139.294 137.691 139.942 137.834 140.648 137.976L141.026 138.044C141.975 138.22 142.917 138.447 143.858 138.724C144.799 138.993 145.648 139.388 146.413 139.917C147.186 140.438 147.808 141.118 148.287 141.966C148.766 142.806 149.001 143.882 149.001 145.192C149.001 146.385 148.749 147.435 148.254 148.35C147.758 149.266 147.102 150.047 146.278 150.702C145.463 151.341 144.514 151.828 143.446 152.156C142.379 152.475 141.261 152.634 140.101 152.634C138.941 152.634 137.84 152.534 136.84 152.34C135.849 152.139 134.941 151.862 134.126 151.492C133.319 151.131 132.596 150.719 131.957 150.266C131.327 149.812 130.772 149.325 130.302 148.812L133.428 145.637Z" fill="white"/>
<path d="M157.137 128.566L161.953 137.722H162.02L166.937 128.566H172.315L164.382 142.636V152.305H159.532V142.636L151.599 128.566H157.129H157.137Z" fill="white"/>
<path d="M176.568 145.637C176.879 145.99 177.257 146.334 177.694 146.679C178.139 147.023 178.619 147.326 179.148 147.603C179.686 147.872 180.274 148.082 180.904 148.25C181.535 148.401 182.216 148.485 182.938 148.485C184.3 148.485 185.334 148.199 186.048 147.636C186.779 147.065 187.141 146.368 187.141 145.553C187.141 144.738 186.821 144.058 186.182 143.613C185.552 143.176 184.544 142.823 183.165 142.571L182.417 142.437C181.426 142.26 180.434 142.025 179.451 141.74C178.467 141.454 177.576 141.042 176.786 140.496C175.988 139.959 175.349 139.27 174.853 138.43C174.357 137.582 174.105 136.506 174.105 135.221C174.105 134.474 174.273 133.684 174.601 132.869C174.929 132.038 175.458 131.29 176.173 130.601C176.904 129.904 177.837 129.341 178.971 128.896C180.123 128.451 181.51 128.232 183.132 128.232C185.056 128.232 186.762 128.552 188.267 129.19C189.78 129.82 190.998 130.652 191.931 131.693L188.737 134.675C188.09 133.961 187.25 133.398 186.224 132.987C185.208 132.575 184.157 132.374 183.081 132.374C181.837 132.374 180.854 132.609 180.148 133.088C179.451 133.566 179.106 134.18 179.106 134.944C179.106 135.44 179.215 135.851 179.434 136.187C179.661 136.515 179.988 136.792 180.392 137.019C180.804 137.229 181.291 137.405 181.863 137.548C182.434 137.691 183.081 137.834 183.787 137.976L184.165 138.044C185.115 138.22 186.056 138.447 186.998 138.724C187.939 138.993 188.788 139.388 189.553 139.917C190.326 140.438 190.948 141.118 191.427 141.966C191.897 142.806 192.141 143.882 192.141 145.192C192.141 146.385 191.889 147.435 191.393 148.35C190.897 149.266 190.242 150.047 189.418 150.702C188.603 151.341 187.653 151.828 186.586 152.156C185.518 152.475 184.401 152.634 183.241 152.634C182.081 152.634 180.98 152.534 179.98 152.34C178.988 152.139 178.081 151.862 177.265 151.492C176.459 151.131 175.736 150.719 175.097 150.266C174.467 149.812 173.912 149.325 173.441 148.812L176.568 145.637Z" fill="white"/>
<path d="M195.259 128.568H213.362V133.02H206.722V152.307H201.907V133.02H195.267V128.568H195.259Z" fill="white"/>
<path d="M217.396 128.567H233.398V132.918H222.204V137.967H232.524V142.301H222.204V147.963H234.046V152.297H217.405V128.559L217.396 128.567Z" fill="white"/>
<path d="M250.669 144.645L243.643 135.876V152.315H238.844V128.576H243.71L250.736 137.85L257.972 128.576H262.645V152.315H257.829V135.876L250.837 144.645H250.669Z" fill="white"/>
<path d="M101.382 198.992C101.382 200.773 101.139 202.394 100.651 203.856C100.172 205.317 99.4577 206.561 98.4996 207.594C97.5499 208.635 96.3565 209.433 94.9193 210.013C93.4822 210.576 91.8097 210.861 89.8851 210.861H81.1445V187.123H89.8851C91.8097 187.123 93.4822 187.409 94.9193 187.98C96.3565 188.543 97.5499 189.341 98.4996 190.382C99.4577 191.424 100.18 192.675 100.651 194.137C101.139 195.59 101.382 197.211 101.382 198.984V198.992ZM96.3985 198.53C96.3985 197.522 96.2724 196.598 96.0203 195.733C95.7765 194.859 95.3815 194.103 94.8269 193.465C94.289 192.827 93.583 192.323 92.709 191.961C91.8349 191.583 90.7844 191.399 89.5489 191.399H85.9518V206.594H89.5489C90.7759 206.594 91.8265 206.409 92.6921 206.048C93.5662 205.67 94.2722 205.166 94.81 204.528C95.3647 203.881 95.7681 203.117 96.0203 202.243C96.2724 201.369 96.3985 200.437 96.3985 199.446V198.539V198.53Z" fill="white"/>
<path d="M119.359 206.46H110.568L109.224 210.861H104.122L111.888 187.123H118.199L126.083 210.861H120.712L119.351 206.46H119.359ZM111.854 202.218H118.065L114.981 192.188H114.913L111.846 202.218H111.854Z" fill="white"/>
<path d="M132.596 187.123L137.412 196.279H137.479L142.396 187.123H147.774L139.841 201.193V210.861H134.991V201.193L127.058 187.123H132.588H132.596Z" fill="white"/>
<path d="M246.206 184.301C245.836 184.301 245.517 184.359 245.24 184.477C244.962 184.595 244.735 184.763 244.55 184.973C244.366 185.183 244.231 185.435 244.147 185.729C244.063 186.014 244.013 186.317 244.013 186.653L241.214 186.401C241.214 185.661 241.357 185.006 241.609 184.435C241.869 183.855 242.214 183.377 242.659 182.99C243.105 182.595 243.626 182.301 244.231 182.1C244.836 181.89 245.5 181.789 246.214 181.789C246.929 181.789 247.643 181.898 248.257 182.125C248.879 182.343 249.408 182.654 249.845 183.057C250.282 183.461 250.618 183.939 250.862 184.502C251.106 185.057 251.232 185.678 251.232 186.342C251.232 187.073 251.081 187.761 250.786 188.4C250.501 189.03 250.114 189.626 249.627 190.164C249.139 190.701 248.593 191.197 247.963 191.651C247.332 192.096 246.685 192.499 246.021 192.852L245.769 192.986H251.4V195.447H241.558V193.003C242.063 192.726 242.584 192.432 243.113 192.121C243.651 191.81 244.164 191.483 244.66 191.147C245.164 190.802 245.635 190.441 246.08 190.071C246.525 189.702 246.912 189.315 247.24 188.921C247.576 188.517 247.837 188.106 248.03 187.686C248.223 187.257 248.324 186.821 248.324 186.367C248.324 186.107 248.282 185.855 248.19 185.603C248.097 185.351 247.971 185.132 247.794 184.939C247.626 184.746 247.408 184.586 247.139 184.469C246.878 184.351 246.567 184.292 246.206 184.292V184.301Z" fill="white"/>
<path d="M256.594 188.904C256.594 189.476 256.636 190.022 256.728 190.542C256.821 191.055 256.955 191.508 257.149 191.903C257.35 192.298 257.611 192.609 257.939 192.844C258.266 193.079 258.67 193.188 259.157 193.188C259.645 193.188 260.048 193.071 260.367 192.844C260.687 192.617 260.956 192.298 261.149 191.903C261.351 191.508 261.494 191.055 261.569 190.542C261.662 190.022 261.704 189.476 261.704 188.904V188.535C261.704 187.964 261.662 187.418 261.569 186.897C261.485 186.376 261.342 185.922 261.149 185.528C260.956 185.133 260.695 184.822 260.367 184.587C260.04 184.352 259.636 184.242 259.157 184.242C258.678 184.242 258.266 184.36 257.939 184.587C257.611 184.822 257.35 185.133 257.149 185.528C256.955 185.922 256.812 186.384 256.728 186.897C256.644 187.418 256.594 187.964 256.594 188.535V188.904ZM264.553 188.728C264.553 189.282 264.511 189.837 264.427 190.391C264.351 190.946 264.225 191.483 264.049 191.996C263.88 192.508 263.653 192.995 263.376 193.44C263.099 193.886 262.763 194.272 262.359 194.608C261.956 194.936 261.494 195.188 260.956 195.381C260.426 195.566 259.821 195.666 259.14 195.666C258.46 195.666 257.854 195.574 257.325 195.381C256.787 195.196 256.325 194.936 255.921 194.608C255.526 194.272 255.19 193.886 254.913 193.44C254.636 192.995 254.409 192.516 254.232 192.004C254.064 191.492 253.938 190.954 253.854 190.4C253.778 189.845 253.736 189.282 253.736 188.728C253.736 188.174 253.778 187.619 253.854 187.065C253.938 186.51 254.064 185.973 254.232 185.46C254.409 184.948 254.636 184.469 254.913 184.024C255.19 183.57 255.526 183.184 255.921 182.856C256.325 182.52 256.787 182.26 257.317 182.075C257.846 181.882 258.46 181.781 259.14 181.781C259.821 181.781 260.426 181.882 260.956 182.075C261.485 182.26 261.956 182.52 262.359 182.856C262.763 183.184 263.099 183.57 263.376 184.024C263.653 184.469 263.872 184.948 264.049 185.46C264.225 185.973 264.351 186.51 264.427 187.065C264.511 187.619 264.553 188.174 264.553 188.728Z" fill="white"/>
<path d="M246.45 203.562C246.08 203.562 245.753 203.621 245.484 203.739C245.206 203.856 244.979 204.024 244.795 204.234C244.61 204.444 244.475 204.696 244.391 204.99C244.299 205.276 244.257 205.578 244.257 205.914L241.458 205.662C241.458 204.923 241.601 204.268 241.853 203.697C242.114 203.117 242.458 202.638 242.904 202.252C243.349 201.857 243.87 201.563 244.475 201.362C245.08 201.152 245.744 201.051 246.459 201.051C247.173 201.051 247.887 201.16 248.501 201.387C249.123 201.605 249.652 201.916 250.089 202.319C250.526 202.722 250.863 203.201 251.106 203.764C251.35 204.318 251.476 204.94 251.476 205.612C251.476 206.343 251.325 207.032 251.031 207.67C250.745 208.3 250.358 208.896 249.871 209.434C249.392 209.972 248.837 210.467 248.207 210.921C247.576 211.366 246.929 211.769 246.265 212.122L246.013 212.256H251.644V214.718H241.803V212.273C242.307 211.996 242.828 211.702 243.357 211.391C243.895 211.08 244.408 210.753 244.904 210.417C245.408 210.072 245.879 209.711 246.324 209.342C246.77 208.972 247.156 208.586 247.484 208.191C247.82 207.788 248.081 207.376 248.274 206.956C248.467 206.528 248.568 206.091 248.568 205.637C248.568 205.377 248.526 205.125 248.434 204.873C248.35 204.621 248.215 204.402 248.039 204.209C247.871 204.016 247.652 203.856 247.383 203.739C247.123 203.621 246.812 203.562 246.45 203.562Z" fill="white"/>
<path d="M256.417 210.593C256.518 210.912 256.661 211.19 256.838 211.433C257.023 211.668 257.233 211.862 257.468 212.021C257.712 212.172 257.972 212.282 258.258 212.357C258.544 212.424 258.846 212.458 259.149 212.458C259.578 212.458 259.939 212.408 260.233 212.307C260.536 212.198 260.779 212.063 260.956 211.904C261.141 211.736 261.284 211.551 261.359 211.341C261.443 211.131 261.477 210.912 261.477 210.694C261.477 210.165 261.25 209.745 260.813 209.434C260.376 209.123 259.695 208.964 258.779 208.964H258.023V206.687H258.594C259.426 206.687 260.065 206.553 260.536 206.284C261.006 206.015 261.242 205.604 261.242 205.049C261.242 204.814 261.191 204.596 261.082 204.411C260.973 204.218 260.83 204.05 260.636 203.924C260.452 203.789 260.233 203.688 259.981 203.621C259.729 203.546 259.46 203.512 259.166 203.512C258.83 203.512 258.519 203.562 258.233 203.655C257.955 203.747 257.712 203.873 257.485 204.041C257.258 204.209 257.073 204.394 256.913 204.612C256.754 204.831 256.628 205.066 256.535 205.31L254.123 204.344C254.266 203.814 254.501 203.352 254.837 202.941C255.174 202.529 255.56 202.193 256.006 201.916C256.459 201.63 256.955 201.42 257.493 201.278C258.031 201.126 258.586 201.051 259.14 201.051C259.838 201.051 260.485 201.135 261.082 201.303C261.679 201.471 262.2 201.723 262.637 202.042C263.082 202.361 263.427 202.756 263.679 203.226C263.931 203.697 264.057 204.234 264.057 204.831C264.057 205.192 263.998 205.52 263.881 205.839C263.763 206.15 263.612 206.427 263.41 206.679C263.217 206.922 262.981 207.132 262.712 207.309C262.443 207.485 262.158 207.62 261.847 207.712C262.191 207.788 262.519 207.914 262.813 208.09C263.116 208.266 263.376 208.485 263.603 208.745C263.83 209.006 264.007 209.316 264.133 209.661C264.267 210.005 264.326 210.383 264.326 210.786C264.326 211.408 264.192 211.971 263.923 212.475C263.662 212.987 263.292 213.416 262.83 213.777C262.368 214.138 261.813 214.415 261.183 214.617C260.552 214.81 259.872 214.911 259.14 214.911C258.493 214.911 257.871 214.827 257.275 214.667C256.678 214.499 256.14 214.264 255.661 213.953C255.182 213.642 254.779 213.256 254.459 212.811C254.131 212.357 253.913 211.853 253.804 211.29L256.401 210.602L256.417 210.593Z" fill="white"/>
<path d="M252.947 106.854C266.784 106.854 278 95.6433 278 81.8138C278 67.9844 266.784 56.7734 252.947 56.7734C239.11 56.7734 227.894 67.9844 227.894 81.8138C227.894 95.6433 239.11 106.854 252.947 106.854Z" fill="#28A197"/>
<path d="M192.452 174.264L166.222 193.231L176.223 223.958H208.647L218.648 193.231L192.46 174.264H192.452Z" fill="#F47738"/>
<path d="M112.652 139.983L69 164.998V114.959L112.652 139.983Z" fill="#D2301F"/>
</g>
<defs>
<clipPath id="clip0_3349_22695">
<rect width="209" height="168" fill="white" transform="translate(69 56)"/>
</clipPath>
</defs>
</svg>
