<svg width="261" height="146" viewBox="0 0 261 146" fill="none" xmlns="http://www.w3.org/2000/svg">
<rect width="261" height="106" rx="8" fill="#F7F7F7"/>
<g clip-path="url(#clip0_3349_22785)">
<path d="M58.0391 54.9824C58.0391 56.0898 58.931 56.9824 60.0376 56.9824L62.0361 56.9824L62.0361 48.9824L58.0391 48.9824L58.0391 54.9824Z" fill="#065EF9"/>
<path d="M56.0337 40.9824C54.9271 40.9824 54.0352 41.875 54.0352 42.9824L54.0352 46.9824C54.0352 48.0898 54.9271 48.9824 56.0337 48.9824L58.0322 48.9824L58.0322 42.9824C58.0322 41.875 57.1403 40.9824 56.0337 40.9824Z" fill="#065EF9"/>
<path d="M67.4347 62.2229C67.6962 61.7666 67.8773 61.3773 67.9712 61.1625L76.1799 44.9813C77.5883 42.3639 75.5898 41.4578 74.121 41.1424C73.3968 40.988 72.7932 40.9746 72.7932 40.9746L72.0219 40.9746C70.9221 40.9746 70.0301 41.8672 70.0301 42.9679L70.0301 46.9746C70.0301 48.082 69.1381 48.9746 68.0316 48.9746L66.033 48.9746L66.033 44.9746L66.033 42.9746C66.033 41.8672 65.1411 40.9746 64.0345 40.9746C62.9279 40.9746 62.036 41.8672 62.036 42.9746L62.036 48.9746L66.033 48.9746L66.033 54.9746C66.033 56.082 65.1411 56.9746 64.0345 56.9746L62.036 56.9746L62.036 61.5988C62.036 62.7263 62.2573 64.9746 64.0613 64.9746C65.577 64.9746 66.764 63.384 67.4347 62.2095L67.4347 62.2229Z" fill="#065EF9"/>
<path d="M94.1938 63.4664L85.7273 42.5997C85.4848 42.0005 85.924 41.3418 86.5735 41.3418H87.2916C89.1853 41.3418 90.8868 42.5036 91.5729 44.2692L97.5466 59.6563L103.68 44.228C104.371 42.4853 106.059 41.3418 107.934 41.3418H108.447C109.096 41.3418 109.54 42.0005 109.293 42.6042L100.707 63.4756C100.424 64.1617 99.7559 64.6099 99.0149 64.6099H95.8908C95.1452 64.6099 94.4728 64.1571 94.1938 63.4664Z" fill="#065EF9"/>
<path d="M134.879 63.6906V43.176C134.879 42.1606 135.702 41.3418 136.713 41.3418H146.245C147.819 41.3418 149.209 41.6483 150.417 42.2566C151.624 42.865 152.567 43.7157 153.244 44.7998C153.921 45.8838 154.259 47.1371 154.259 48.5551C154.259 49.973 153.847 51.3452 153.029 52.475C152.21 53.6048 151.112 54.4464 149.74 54.9999L154.168 63.2606C154.492 63.869 154.053 64.6099 153.363 64.6099H152.306C150.586 64.6099 149.017 63.6494 148.235 62.1171L144.956 55.6997H139.705V63.6906C139.705 64.1983 139.293 64.6054 138.79 64.6054H135.803C135.295 64.6054 134.888 64.1937 134.888 63.6906H134.879ZM139.7 51.7432H145.815C146.899 51.7432 147.769 51.455 148.423 50.8787C149.077 50.3023 149.402 49.5476 149.402 48.6191C149.402 47.6906 149.077 46.9359 148.423 46.3595C147.769 45.7832 146.899 45.495 145.815 45.495H139.7V51.7432Z" fill="#065EF9"/>
<path d="M167.979 64.9392C166.095 64.9392 164.256 64.5916 162.463 63.8917C160.958 63.3063 159.595 62.515 158.369 61.5178C157.976 61.1976 157.912 60.6259 158.227 60.2279C159.362 58.8054 161.388 58.3983 162.948 59.336C163.419 59.6196 163.886 59.8574 164.343 60.0541C165.596 60.5847 166.918 60.85 168.313 60.85C169.287 60.85 170.129 60.7357 170.838 60.5024C171.547 60.2691 172.096 59.9306 172.485 59.4869C172.874 59.0433 173.066 58.5218 173.066 57.9226C173.066 57.1267 172.777 56.5092 172.201 56.0793C171.625 55.6493 170.637 55.3108 169.242 55.0638L164.622 54.268C162.651 53.9341 161.15 53.2388 160.116 52.173C159.087 51.1073 158.57 49.7351 158.57 48.0518C158.57 46.611 158.941 45.3577 159.682 44.2965C160.423 43.2308 161.475 42.4166 162.838 41.854C164.201 41.2914 165.825 41.0078 167.709 41.0078C169.416 41.0078 171.117 41.296 172.809 41.8723C174.182 42.3389 175.426 42.9518 176.546 43.7065C176.976 43.9992 177.082 44.5847 176.78 45.0055L176.697 45.1199C175.65 46.5698 173.715 46.9998 172.11 46.2131C170.504 45.4263 168.963 45.0604 167.38 45.0604C166.516 45.0604 165.761 45.1702 165.12 45.3943C164.476 45.6139 163.986 45.9203 163.643 46.3091C163.3 46.6979 163.126 47.1553 163.126 47.6905C163.126 48.3995 163.382 48.9483 163.89 49.3371C164.398 49.7259 165.253 50.0187 166.452 50.2199L170.838 50.9518C173.166 51.3269 174.904 52.0633 176.057 53.161C177.21 54.2588 177.786 55.7042 177.786 57.4972C177.786 59.0021 177.388 60.3194 176.588 61.4355C175.792 62.5561 174.653 63.4206 173.18 64.029C171.707 64.6373 169.974 64.9438 167.979 64.9438V64.9392Z" fill="#065EF9"/>
<path d="M193.836 64.9753C192.107 64.9753 190.501 64.6688 189.015 64.0605C187.528 63.4521 186.229 62.5968 185.108 61.499C183.988 60.4012 183.114 59.1297 182.483 57.6751C181.852 56.2251 181.536 54.6562 181.536 52.973C181.536 51.2897 181.852 49.7208 182.483 48.2709C183.114 46.8209 183.988 45.5447 185.108 44.447C186.229 43.3492 187.528 42.4984 189.015 41.8855C190.501 41.2772 192.107 40.9707 193.836 40.9707C195.565 40.9707 197.175 41.2772 198.671 41.8855C200.166 42.4939 201.474 43.3492 202.59 44.447C203.711 45.5447 204.58 46.8163 205.198 48.2709C205.82 49.7208 206.131 51.2897 206.131 52.973C206.131 54.6562 205.82 56.2251 205.198 57.6751C204.576 59.1251 203.707 60.4012 202.59 61.499C201.47 62.5968 200.166 63.4475 198.671 64.0605C197.175 64.6688 195.565 64.9753 193.836 64.9753ZM193.836 60.5568C194.901 60.5568 195.876 60.3646 196.759 59.9758C197.646 59.5871 198.419 59.0565 199.087 58.3795C199.75 57.7025 200.271 56.9021 200.651 55.969C201.026 55.0405 201.218 54.0433 201.218 52.9776C201.218 51.9118 201.031 50.8872 200.651 49.9678C200.276 49.0485 199.755 48.2526 199.087 47.5756C198.424 46.8987 197.646 46.3681 196.759 45.9793C195.871 45.5905 194.897 45.3984 193.836 45.3984C192.775 45.3984 191.832 45.5905 190.945 45.9793C190.058 46.3681 189.285 46.8987 188.617 47.5756C187.954 48.2526 187.432 49.0485 187.052 49.9678C186.677 50.8872 186.485 51.8798 186.485 52.941C186.485 54.0021 186.673 55.0359 187.052 55.9644C187.428 56.8929 187.949 57.698 188.617 58.3749C189.28 59.0519 190.058 59.5825 190.945 59.9713C191.832 60.3601 192.793 60.5522 193.836 60.5522V60.5568Z" fill="#065EF9"/>
<path d="M113.09 62.8044V43.1351C113.09 42.1428 113.897 41.3379 114.892 41.3379H130.096C130.605 41.3379 131.013 41.7495 131.013 42.2525V44.6077C131.013 45.1153 130.6 45.5223 130.096 45.5223H117.923V50.8409H125.639C126.144 50.8409 126.552 51.248 126.552 51.751V53.9827C126.552 54.4858 126.144 54.8928 125.639 54.8928H117.923V60.408H130.233C130.742 60.408 131.15 60.8196 131.15 61.3226V63.6778C131.15 64.1855 130.738 64.5925 130.233 64.5925H114.892C113.897 64.5925 113.09 63.7876 113.09 62.7952V62.8044Z" fill="#065EF9"/>
</g>
<defs>
<clipPath id="clip0_3349_22785">
<rect width="152.25" height="24" fill="white" transform="translate(54 41)"/>
</clipPath>
</defs>
</svg>
