<svg width="259" height="271" viewBox="0 0 259 271" fill="none" xmlns="http://www.w3.org/2000/svg">
<g clip-path="url(#clip0_3349_22788)">
<rect width="259" height="271" rx="8" fill="#F7F7F7"/>
<path d="M-625 -16C-625 -20.4183 -621.418 -24 -617 -24H475.614C480.032 -24 483.614 -20.4183 483.614 -16V409C483.614 413.418 480.032 417 475.614 417H-617C-621.418 417 -625 413.418 -625 409V-16Z" fill="#F7F7F7"/>
<g clip-path="url(#clip1_3349_22788)">
<rect x="-60" width="318" height="271" rx="8" fill="#F5F9FF"/>
<path d="M89.5406 131.684H316.211C322.101 131.684 326.881 136.464 326.881 142.354V289.354C326.881 295.794 321.651 301.024 315.211 301.024H90.5406C84.1006 301.024 78.8706 295.794 78.8706 289.354V142.354C78.8706 136.464 83.6506 131.684 89.5406 131.684Z" fill="white" stroke="#004DA2" stroke-width="0.5" stroke-linecap="round" stroke-linejoin="round"/>
<path d="M172.501 148.354H158.541V157.524H172.501V148.354Z" fill="#B3D6FF"/>
<path d="M127.271 204.914H114.311V217.774H127.271V204.914Z" fill="#B3D6FF"/>
<path d="M184.531 159.723H171.471V172.583H184.531V159.723Z" fill="#B3D6FF"/>
<path d="M156.331 148.354H142.371V157.524H156.331V148.354Z" fill="#B3D6FF"/>
<path d="M199.79 159.723H186.73V172.583H199.79V159.723Z" fill="#B3D6FF"/>
<path d="M188.661 148.354H174.701V157.524H188.661V148.354Z" fill="#B3D6FF"/>
<path d="M119.431 189.854H94.8706V202.714H119.431V189.854Z" fill="#B3D6FF"/>
<path d="M154 159.723H140.94V172.583H154V159.723Z" fill="#B3D6FF"/>
<path d="M112.101 204.914H94.8706V217.774H112.101V204.914Z" fill="#B3D6FF"/>
<path d="M204.831 148.354H190.871V157.524H204.831V148.354Z" fill="#B3D6FF"/>
<path d="M123.471 159.723H110.411V172.583H123.471V159.723Z" fill="#B3D6FF"/>
<path d="M124.001 148.354H110.041V157.524H124.001V148.354Z" fill="#B3D6FF"/>
<path d="M140.161 148.354H126.201V157.524H140.161V148.354Z" fill="#B3D6FF"/>
<path d="M138.73 159.723H125.67V172.583H138.73V159.723Z" fill="#B3D6FF"/>
<path d="M169.261 159.723H156.201V172.583H169.261V159.723Z" fill="#B3D6FF"/>
<path d="M269.501 148.354H255.541V157.524H269.501V148.354Z" fill="#B3D6FF"/>
<path d="M108.201 159.723H94.8706V172.583H108.201V159.723Z" fill="#B3D6FF"/>
<path d="M221.001 148.354H207.041V157.524H221.001V148.354Z" fill="#B3D6FF"/>
<path d="M237.161 148.354H223.201V157.524H237.161V148.354Z" fill="#B3D6FF"/>
<path d="M230.321 159.723H217.26V172.583H230.321V159.723Z" fill="#B3D6FF"/>
<path d="M260.861 159.723H247.801V172.583H260.861V159.723Z" fill="#B3D6FF"/>
<path d="M215.06 159.723H202V172.583H215.06V159.723Z" fill="#B3D6FF"/>
<path d="M245.591 159.723H232.531V172.583H245.591V159.723Z" fill="#B3D6FF"/>
<path d="M253.331 148.354H239.371V157.524H253.331V148.354Z" fill="#B3D6FF"/>
<path d="M233.441 204.914H220.481V217.774H233.441V204.914Z" fill="#B3D6FF"/>
<path d="M248.601 204.914H235.641V217.774H248.601V204.914Z" fill="#B3D6FF"/>
<path d="M263.771 204.914H250.811V217.774H263.771V204.914Z" fill="#B3D6FF"/>
<path d="M255.941 189.854H242.981V202.714H255.941V189.854Z" fill="#B3D6FF"/>
<path d="M107.831 148.354H94.8706V157.524H107.831V148.354Z" fill="#B3D6FF"/>
<path d="M315.541 219.984H94.8706V233.354H315.541V219.984Z" fill="#B3D6FF"/>
<path d="M299.981 187.553H297.771V174.793H284.811V187.553H282.611V174.793H269.641V187.553H267.441V174.793H254.481V187.553H252.271V174.793H239.311V187.553H237.111V174.793H224.141V187.553H221.941V174.793H208.981V187.553H206.771V174.793H193.811V187.553H191.611V174.793H178.641V187.553H176.441V174.793H163.481V187.553H161.271V174.793H148.311V187.553H146.111V174.793H133.141V187.553H130.941V174.793H117.981V187.553H115.771V174.793H94.8706V187.653H315.541V174.793H299.981V187.553Z" fill="#B3D6FF"/>
<path d="M195.271 189.854H182.311V202.714H195.271V189.854Z" fill="#B3D6FF"/>
<path d="M240.771 189.854H227.811V202.714H240.771V189.854Z" fill="#B3D6FF"/>
<path d="M164.94 189.854H151.98V202.714H164.94V189.854Z" fill="#B3D6FF"/>
<path d="M172.771 204.914H159.811V217.774H172.771V204.914Z" fill="#B3D6FF"/>
<path d="M180.101 189.854H167.141V202.714H180.101V189.854Z" fill="#B3D6FF"/>
<path d="M149.771 189.854H136.811V202.714H149.771V189.854Z" fill="#B3D6FF"/>
<path d="M142.44 204.914H129.48V217.774H142.44V204.914Z" fill="#B3D6FF"/>
<path d="M157.601 204.914H144.641V217.774H157.601V204.914Z" fill="#B3D6FF"/>
<path d="M210.441 189.854H197.481V202.714H210.441V189.854Z" fill="#B3D6FF"/>
<path d="M218.271 204.914H205.311V217.774H218.271V204.914Z" fill="#B3D6FF"/>
<path d="M225.601 189.854H212.641V202.714H225.601V189.854Z" fill="#B3D6FF"/>
<path d="M187.94 204.914H174.98V217.774H187.94V204.914Z" fill="#B3D6FF"/>
<path d="M203.101 204.914H190.141V217.774H203.101V204.914Z" fill="#B3D6FF"/>
<path d="M134.601 189.854H121.641V202.714H134.601V189.854Z" fill="#B3D6FF"/>
<path d="M341.041 39.6836H63.3806C57.5406 39.6836 53.2906 45.2236 54.8106 50.8536L75.1106 126.444C76.1506 130.324 79.6606 133.014 83.6806 133.014H112.021V138.214H293.741V133.014H320.741C324.751 133.014 328.271 130.324 329.311 126.444L349.611 50.8536C351.121 45.2136 346.881 39.6836 341.041 39.6836Z" fill="#004DA2" stroke="#004DA2" stroke-width="0.5" stroke-linecap="round" stroke-linejoin="round"/>
<path d="M317.924 126.789H87.0888L64.001 48.7891H341.001L317.924 126.789Z" fill="#E5F2FF" stroke="#004DA2" stroke-width="0.5" stroke-linecap="round" stroke-linejoin="round"/>
<path d="M109.04 92.4121V93.4121H105.24V92.4121H109.04Z" fill="#004DA2"/>
<path d="M113.76 92.4121V93.4121H109.96V92.4121H113.76Z" fill="#004DA2"/>
<path d="M118.47 92.4121V93.4121H114.67V92.4121H118.47Z" fill="#004DA2"/>
<path d="M123.19 92.4121V93.4121H119.39V92.4121H123.19Z" fill="#004DA2"/>
<path d="M127.91 92.4121V93.4121H124.11V92.4121H127.91Z" fill="#004DA2"/>
<path d="M132.62 92.4121V93.4121H128.82V92.4121H132.62Z" fill="#004DA2"/>
<path d="M137.34 92.4121V93.4121H133.54V92.4121H137.34Z" fill="#004DA2"/>
<path d="M142.01 97.683L137.83 86.543H138.87L143.05 97.683H142.01Z" fill="#004DA2"/>
<path d="M105.22 76.1934V77.1934H101.42V76.1934H105.22Z" fill="#004DA2"/>
<path d="M109.941 76.1934V77.1934H106.141V76.1934H109.941Z" fill="#004DA2"/>
<path d="M114.66 76.1934V77.1934H110.86V76.1934H114.66Z" fill="#004DA2"/>
<path d="M119.37 76.1934V77.1934H115.57V76.1934H119.37Z" fill="#004DA2"/>
<path d="M124.091 76.1934V77.1934H120.291V76.1934H124.091Z" fill="#004DA2"/>
<path d="M132.071 76.1934V77.1934H128.271V76.1934H132.071Z" fill="#004DA2"/>
<path d="M136.78 76.1934V77.1934H132.98V76.1934H136.78Z" fill="#004DA2"/>
<path d="M141.5 76.1934V77.1934H137.7V76.1934H141.5Z" fill="#004DA2"/>
<path d="M146.22 76.1934V77.1934H142.42V76.1934H146.22Z" fill="#004DA2"/>
<path d="M150.93 76.1934V77.1934H147.13V76.1934H150.93Z" fill="#004DA2"/>
<path d="M155.651 76.1934V77.1934H151.851V76.1934H155.651Z" fill="#004DA2"/>
<path d="M160.37 76.1934V77.1934H156.57V76.1934H160.37Z" fill="#004DA2"/>
<path d="M168.341 76.1934V77.1934H164.541V76.1934H168.341Z" fill="#004DA2"/>
<path d="M173.06 76.1934V77.1934H169.26V76.1934H173.06Z" fill="#004DA2"/>
<path d="M177.78 76.1934V77.1934H173.98V76.1934H177.78Z" fill="#004DA2"/>
<path d="M185.75 76.1934V77.1934H181.96V76.1934H185.75Z" fill="#004DA2"/>
<path d="M190.47 76.1934V77.1934H186.68V76.1934H190.47Z" fill="#004DA2"/>
<path d="M195.181 76.1934V77.1934H191.391V76.1934H195.181Z" fill="#004DA2"/>
<path d="M212.93 76.1934V77.1934H209.14V76.1934H212.93Z" fill="#004DA2"/>
<path d="M217.65 76.1934V77.1934H213.86V76.1934H217.65Z" fill="#004DA2"/>
<path d="M222.36 76.1934V77.1934H218.57V76.1934H222.36Z" fill="#004DA2"/>
<path d="M227.081 76.1934V77.1934H223.291V76.1934H227.081Z" fill="#004DA2"/>
<path d="M231.801 76.1934V77.1934H228.01V76.1934H231.801Z" fill="#004DA2"/>
<path d="M239.77 76.1934V77.1934H235.98V76.1934H239.77Z" fill="#004DA2"/>
<path d="M244.49 76.1934V77.1934H240.7V76.1934H244.49Z" fill="#004DA2"/>
<path d="M249.21 76.1934V77.1934H245.42V76.1934H249.21Z" fill="#004DA2"/>
<path d="M257.18 76.1934V77.1934H253.39V76.1934H257.18Z" fill="#004DA2"/>
<g filter="url(#filter0_dd_3349_22788)">
<rect x="13.3984" y="124.551" width="109.2" height="40.3633" rx="2" fill="white"/>
<path d="M38.4269 146.843C38.2894 146.446 38.1005 146.086 37.86 145.761C37.6195 145.436 37.3275 145.165 36.9839 144.931C36.6404 144.696 36.2624 144.516 35.8502 144.372V144.317C36.5888 143.903 37.1385 143.379 37.4477 142.748C37.7741 142.116 37.9287 141.431 37.9287 140.673C37.9287 140.24 37.86 139.825 37.7397 139.392C37.6195 138.977 37.4134 138.562 37.1385 138.183C36.8637 137.805 36.5201 137.462 36.1078 137.155C35.6956 136.848 35.1974 136.596 34.6477 136.397C33.8919 136.145 32.8956 136 31.6588 136H25.887L24.5986 135.982V138.382H25.8698V151.083H24.5986V153.482H30.6968C31.1606 153.482 31.5557 153.482 31.9336 153.464C32.2943 153.464 32.6379 153.428 32.9299 153.392C33.2219 153.356 33.4968 153.32 33.7373 153.284C33.9778 153.248 34.2011 153.194 34.4072 153.14C35.2318 152.905 35.9017 152.616 36.4514 152.22C36.9839 151.841 37.4134 151.408 37.7397 150.957C38.0661 150.506 38.2894 150.019 38.4097 149.531C38.5299 149.044 38.5986 148.593 38.5986 148.16C38.5986 147.655 38.5299 147.222 38.3925 146.807L38.4269 146.843ZM28.9103 138.689H31.4011C31.8477 138.689 32.2084 138.689 32.5005 138.743C32.7925 138.779 33.0673 138.815 33.2907 138.887C33.8232 139.067 34.2183 139.32 34.4416 139.699C34.6649 140.06 34.7851 140.475 34.7851 140.926C34.7851 141.377 34.6821 141.774 34.4931 142.116C34.3042 142.477 33.9778 142.748 33.514 142.946C33.1017 143.127 32.4833 143.199 31.6588 143.199H28.9103V138.689ZM35.3692 149.008C35.3005 149.261 35.1631 149.477 34.9913 149.694C34.8195 149.892 34.5962 150.073 34.3042 150.235C34.0293 150.397 33.6686 150.524 33.2391 150.614C32.9643 150.686 32.6379 150.74 32.26 150.758C31.8821 150.794 31.4183 150.812 30.8857 150.812H28.8931V145.887H31.779C32.2772 145.887 32.7066 145.887 33.0158 145.941C33.3422 145.977 33.617 146.031 33.8575 146.104C34.4072 146.284 34.8023 146.555 35.06 146.933C35.3177 147.294 35.4379 147.727 35.4379 148.214C35.4379 148.485 35.4035 148.756 35.3177 149.008H35.3692Z" fill="#1B86FD"/>
<path d="M49.0984 137.383V152.083H48.3984V137.383H49.0984Z" fill="#D5D5D7"/>
<path d="M67.7058 153.218L67.5406 153.713H58.8984L59.1186 153.218C59.981 153.218 60.5682 153.144 60.8434 153.034C61.3021 152.888 61.6324 152.686 61.8526 152.411C62.2012 151.989 62.5498 151.255 62.8984 150.19L66.5498 139.365C66.8617 138.466 67.0085 137.787 67.0085 137.328C67.0085 137.108 66.9351 136.906 66.8067 136.741C66.6783 136.576 66.4581 136.466 66.2012 136.374C65.926 136.282 65.3939 136.245 64.6049 136.245L64.7883 135.75H72.8984L72.7333 136.245C72.0727 136.245 71.5773 136.3 71.2654 136.429C70.8067 136.612 70.4397 136.851 70.2012 137.181C69.9627 137.511 69.6507 138.227 69.2654 139.346L65.6324 150.172C65.3021 151.163 65.137 151.805 65.137 152.08C65.137 152.3 65.2104 152.484 65.3388 152.649C65.4672 152.796 65.6691 152.924 65.9627 152.998C66.2562 153.089 66.8434 153.144 67.7425 153.2L67.7058 153.218Z" fill="#1B86FD"/>
<path d="M83.3982 137.383V152.083H82.6982V137.383H83.3982Z" fill="#D5D5D7"/>
<path d="M109.234 137.192V147.414C109.234 149.128 108.567 150.579 107.212 151.728C105.878 152.898 104.24 153.482 102.339 153.482C101.065 153.482 99.9322 153.24 98.9414 152.777C97.9505 152.293 97.1011 151.587 96.4136 150.62C95.726 149.652 95.362 148.583 95.362 147.434V137.192H94.1487C93.8049 137.192 93.5622 137.132 93.4207 137.031C93.2791 136.91 93.1982 136.769 93.1982 136.587C93.1982 136.406 93.2791 136.245 93.4409 136.124C93.5825 136.023 93.8251 135.982 94.1689 135.982H99.4671C99.8109 135.982 100.054 136.043 100.195 136.144C100.337 136.265 100.418 136.406 100.418 136.587C100.418 136.769 100.337 136.91 100.195 137.031C100.054 137.152 99.8109 137.192 99.4671 137.192H96.818V147.414C96.818 148.765 97.364 149.914 98.4358 150.841C99.5278 151.789 100.802 152.253 102.278 152.253C103.228 152.253 104.078 152.071 104.866 151.708C105.635 151.345 106.322 150.781 106.909 150.015C107.495 149.249 107.799 148.382 107.799 147.414V137.192H105.15C104.806 137.192 104.563 137.132 104.422 137.031C104.28 136.91 104.199 136.769 104.199 136.587C104.199 136.406 104.28 136.265 104.422 136.144C104.563 136.023 104.826 135.982 105.15 135.982H110.448C110.792 135.982 111.034 136.043 111.176 136.144C111.317 136.265 111.398 136.406 111.398 136.587C111.398 136.769 111.317 136.91 111.176 137.031C111.034 137.152 110.792 137.192 110.448 137.192H109.234Z" fill="#1B86FD"/>
</g>
</g>
</g>
<defs>
<filter id="filter0_dd_3349_22788" x="-10.6016" y="104.551" width="157.2" height="88.3633" filterUnits="userSpaceOnUse" color-interpolation-filters="sRGB">
<feFlood flood-opacity="0" result="BackgroundImageFix"/>
<feColorMatrix in="SourceAlpha" type="matrix" values="0 0 0 0 0 0 0 0 0 0 0 0 0 0 0 0 0 0 127 0" result="hardAlpha"/>
<feOffset/>
<feGaussianBlur stdDeviation="0.1848"/>
<feComposite in2="hardAlpha" operator="out"/>
<feColorMatrix type="matrix" values="0 0 0 0 0 0 0 0 0 0 0 0 0 0 0 0 0 0 0.7 0"/>
<feBlend mode="normal" in2="BackgroundImageFix" result="effect1_dropShadow_3349_22788"/>
<feColorMatrix in="SourceAlpha" type="matrix" values="0 0 0 0 0 0 0 0 0 0 0 0 0 0 0 0 0 0 127 0" result="hardAlpha"/>
<feOffset dy="4"/>
<feGaussianBlur stdDeviation="12"/>
<feComposite in2="hardAlpha" operator="out"/>
<feColorMatrix type="matrix" values="0 0 0 0 0 0 0 0 0 0 0 0 0 0 0 0 0 0 0.1 0"/>
<feBlend mode="normal" in2="effect1_dropShadow_3349_22788" result="effect2_dropShadow_3349_22788"/>
<feBlend mode="normal" in="SourceGraphic" in2="effect2_dropShadow_3349_22788" result="shape"/>
</filter>
<clipPath id="clip0_3349_22788">
<rect width="259" height="271" rx="8" fill="white"/>
</clipPath>
<clipPath id="clip1_3349_22788">
<rect x="-60" width="318" height="271" rx="8" fill="white"/>
</clipPath>
</defs>
</svg>
