<svg width="24" height="24" viewBox="0 0 24 24" fill="none" xmlns="http://www.w3.org/2000/svg">
<mask id="mask0_4907_8015" style="mask-type:alpha" maskUnits="userSpaceOnUse" x="0" y="0" width="25" height="24">
<rect x="0.000976562" width="24" height="24" fill="#D9D9D9"/>
</mask>
<g mask="url(#mask0_4907_8015)">
<path d="M11.99 17.6153C12.2755 17.6153 12.5167 17.5168 12.7135 17.3196C12.9102 17.1224 13.0086 16.8811 13.0086 16.5956C13.0086 16.31 12.9101 16.0689 12.7129 15.8721C12.5158 15.6753 12.2744 15.5769 11.9889 15.5769C11.7033 15.5769 11.4622 15.6755 11.2654 15.8726C11.0686 16.0698 10.9702 16.3111 10.9702 16.5967C10.9702 16.8822 11.0688 17.1234 11.2659 17.3202C11.4631 17.5169 11.7044 17.6153 11.99 17.6153ZM12.0026 21.5C10.6887 21.5 9.45366 21.2506 8.29753 20.752C7.14138 20.2533 6.13569 19.5765 5.28048 18.7217C4.42524 17.8669 3.74819 16.8616 3.2493 15.706C2.75042 14.5504 2.50098 13.3156 2.50098 12.0017C2.50098 10.6877 2.75031 9.45268 3.24898 8.29655C3.74764 7.1404 4.42439 6.13472 5.27923 5.2795C6.13408 4.42427 7.13932 3.74721 8.29495 3.24833C9.45057 2.74944 10.6853 2.5 11.9993 2.5C13.3132 2.5 14.5482 2.74933 15.7044 3.248C16.8605 3.74667 17.8662 4.42342 18.7214 5.27825C19.5767 6.1331 20.2537 7.13834 20.7526 8.29398C21.2515 9.44959 21.5009 10.6844 21.5009 11.9983C21.5009 13.3122 21.2516 14.5473 20.7529 15.7034C20.2543 16.8596 19.5775 17.8652 18.7227 18.7205C17.8678 19.5757 16.8626 20.2527 15.707 20.7516C14.5513 21.2505 13.3166 21.5 12.0026 21.5ZM12.001 20C14.2343 20 16.126 19.225 17.676 17.675C19.226 16.125 20.001 14.2333 20.001 12C20.001 9.76664 19.226 7.87498 17.676 6.32498C16.126 4.77498 14.2343 3.99997 12.001 3.99997C9.76762 3.99997 7.87595 4.77498 6.32595 6.32498C4.77595 7.87498 4.00095 9.76664 4.00095 12C4.00095 14.2333 4.77595 16.125 6.32595 17.675C7.87595 19.225 9.76762 20 12.001 20ZM12.082 7.7192C12.5433 7.7192 12.9426 7.86444 13.2798 8.15493C13.617 8.44541 13.7856 8.80851 13.7856 9.24423C13.7856 9.61089 13.6779 9.93909 13.4625 10.2288C13.2471 10.5186 13.001 10.7885 12.7241 11.0385C12.3611 11.3605 12.0415 11.7147 11.7653 12.1011C11.4891 12.4875 11.3414 12.9179 11.3221 13.3923C11.3157 13.5743 11.3798 13.7269 11.5144 13.85C11.649 13.973 11.8061 14.0346 11.9856 14.0346C12.1779 14.0346 12.3407 13.9705 12.474 13.8423C12.6073 13.7141 12.6926 13.557 12.7298 13.3711C12.7964 13.0275 12.9384 12.7215 13.1558 12.4529C13.3731 12.1843 13.6085 11.9289 13.862 11.6867C14.2264 11.3314 14.5445 10.9441 14.8163 10.5247C15.0881 10.1052 15.224 9.63738 15.224 9.12115C15.224 8.32885 14.9118 7.67789 14.2875 7.16827C13.6631 6.65866 12.9343 6.40385 12.101 6.40385C11.5061 6.40385 10.9452 6.53558 10.4183 6.79905C9.89136 7.0625 9.4811 7.44679 9.1875 7.95193C9.09649 8.10704 9.06727 8.27032 9.09985 8.44175C9.13243 8.61317 9.22041 8.74333 9.36378 8.83223C9.54626 8.93381 9.73365 8.9628 9.92595 8.9192C10.1183 8.87562 10.2817 8.76601 10.4163 8.59038C10.6189 8.32754 10.8641 8.11664 11.1519 7.95768C11.4397 7.79869 11.7497 7.7192 12.082 7.7192Z" fill="#006EE6"/>
</g>
</svg>
