<svg width="32" height="32" viewBox="0 0 32 32" fill="none" xmlns="http://www.w3.org/2000/svg">
<path fill-rule="evenodd" clip-rule="evenodd" d="M24.6844 3.64368C24.6844 1.64601 26.3046 0 28.3206 0C30.3366 0 31.9568 1.64601 31.9568 3.64368C31.9568 5.64134 30.3366 7.3098 28.3206 7.3098C26.3046 7.3098 24.6844 5.66378 24.6844 3.64368ZM17.1357 3.64368C17.1357 1.99766 18.4573 0.673369 20.0999 0.673369C21.7426 0.673369 23.0641 1.99766 23.0641 3.64368C23.0641 5.28969 21.7426 6.63643 20.0999 6.63643C18.4573 6.63643 17.1357 5.28969 17.1357 3.64368ZM9.63184 3.64368C9.63184 2.40168 10.6398 1.39163 11.8793 1.39163C13.1187 1.39163 14.1267 2.40168 14.1267 3.64368C14.1267 4.88567 13.1187 5.91817 11.8793 5.91817C10.6398 5.91817 9.63184 4.90811 9.63184 3.64368ZM24.6844 11.8812C24.6844 9.86112 26.3046 8.23755 28.3206 8.23755C30.3366 8.23755 31.9568 9.86112 31.9568 11.8812C31.9568 13.9013 30.3366 15.5473 28.3206 15.5473C26.3046 15.5473 24.6844 13.9013 24.6844 11.8812ZM17.1357 11.8812C17.1357 10.2352 18.4573 8.91092 20.0999 8.91092C21.7426 8.91092 23.0641 10.2352 23.0641 11.8812C23.0641 13.5272 21.7426 14.874 20.0999 14.874C18.4573 14.874 17.1357 13.5272 17.1357 11.8812ZM9.63184 11.8812C9.63184 10.6392 10.6398 9.62918 11.8793 9.62918C13.1187 9.62918 14.1267 10.6392 14.1267 11.8812C14.1267 13.1232 13.1187 14.1557 11.8793 14.1557C10.6398 14.1557 9.63184 13.1457 9.63184 11.8812ZM0 20.1188C0 18.0987 1.64264 16.4751 3.63621 16.4751C5.62977 16.4751 7.29481 18.0987 7.29481 20.1188C7.29481 22.1389 5.65217 23.7849 3.63621 23.7849C1.62024 23.7849 0 22.1389 0 20.1188ZM2.1877 11.8812C2.1877 11.0582 2.83729 10.4073 3.65861 10.4073C4.47992 10.4073 5.12951 11.0582 5.12951 11.8812C5.12951 12.7042 4.47992 13.3776 3.65861 13.3776C2.83729 13.3776 2.1877 12.7042 2.1877 11.8812ZM2.1877 3.64368C2.1877 2.82067 2.83729 2.16975 3.65861 2.16975C4.47992 2.16975 5.12951 2.82067 5.12951 3.64368C5.12951 4.46668 4.47992 5.14005 3.65861 5.14005C2.83729 5.14005 2.1877 4.46668 2.1877 3.64368ZM26.8497 20.1188C26.8497 19.3182 27.5217 18.6673 28.3206 18.6673C29.1195 18.6673 29.7915 19.3182 29.7915 20.1188C29.7915 20.9193 29.1195 21.5927 28.3206 21.5927C27.5217 21.5927 26.8497 20.9418 26.8497 20.1188ZM17.8525 20.1188C17.8525 18.8768 18.8605 17.8892 20.0999 17.8892C21.3394 17.8892 22.3474 18.8768 22.3474 20.1188C22.3474 21.3608 21.3394 22.3708 20.0999 22.3708C18.8605 22.3708 17.8525 21.3608 17.8525 20.1188ZM8.91505 20.1188C8.91505 18.4952 10.2366 17.1709 11.8793 17.1709C13.5219 17.1709 14.8435 18.4952 14.8435 20.1188C14.8435 21.7423 13.5219 23.0891 11.8793 23.0891C10.2366 23.0891 8.91505 21.7648 8.91505 20.1188ZM26.8497 28.3563C26.8497 27.5558 27.5217 26.9048 28.3206 26.9048C29.1195 26.9048 29.7915 27.5558 29.7915 28.3563C29.7915 29.1569 29.1195 29.8303 28.3206 29.8303C27.5217 29.8303 26.8497 29.1793 26.8497 28.3563ZM17.8525 28.3563C17.8525 27.1143 18.8605 26.1267 20.0999 26.1267C21.3394 26.1267 22.3474 27.1143 22.3474 28.3563C22.3474 29.5983 21.3394 30.6084 20.0999 30.6084C18.8605 30.6084 17.8525 29.5983 17.8525 28.3563ZM8.91505 28.3563C8.91505 26.7103 10.2366 25.386 11.8793 25.386C13.5219 25.386 14.8435 26.7103 14.8435 28.3563C14.8435 30.0023 13.5219 31.3266 11.8793 31.3266C10.2366 31.3266 8.91505 30.0023 8.91505 28.3563ZM0.0447992 28.3563C0.0447992 26.3587 1.66504 24.7351 3.65861 24.7351C5.65217 24.7351 7.29481 26.3587 7.29481 28.3563C7.29481 30.354 5.65217 32 3.65861 32C1.66504 32 0.0447992 30.354 0.0447992 28.3563Z" fill="white"/>
</svg>
