<svg width="25" height="22" viewBox="0 0 25 22" fill="none" xmlns="http://www.w3.org/2000/svg">
<g clip-path="url(#clip0_4378_2579)">
<path d="M11.6296 14.6846H12.8802C13.5539 14.6846 14.2516 14.5204 14.7635 14.0641L14.5679 15.066C14.2733 15.0878 13.916 15.1192 13.5225 15.1192H10.3789C10.6179 14.7497 10.6517 14.1848 10.6517 13.6947V9.60465C10.6517 9.11452 10.6517 8.54955 10.4127 8.17773H14.2106L14.254 9.01553C13.8726 8.68959 13.2859 8.61233 12.6436 8.61233H11.632V11.2126C12.4698 11.2126 13.351 11.2126 14.1888 11.1354C13.8074 11.7559 12.5784 11.7559 11.9048 11.7559H11.632V14.6821L11.6296 14.6846Z" fill="#003897"/>
<path d="M16.8277 13.6947C16.8277 14.1848 16.8277 14.7497 17.0667 15.1192H15.6084C15.8474 14.7497 15.8474 14.1848 15.8474 13.6947V9.60465C15.8474 9.11452 15.8692 8.54955 15.6301 8.17773H19.0031C19.2735 8.17773 19.5028 8.17773 19.5028 8.27672V9.1266H19.4497C19.1455 8.62681 18.4598 8.61474 17.948 8.61474H16.8277V11.4106C17.6655 11.4106 18.5467 11.4106 19.3845 11.3334C19.0031 11.9539 17.7741 11.9539 17.1005 11.9539H16.8277V13.6947Z" fill="#003897"/>
<path d="M5.38857 7.55273C5.35477 7.63241 5.38857 7.72657 5.46583 7.76278C5.54309 7.799 5.63242 7.76761 5.67105 7.69035C5.69278 7.64689 7.91162 3.31062 13.3151 3.31062C18.7185 3.31062 21.2464 7.94386 21.4299 11.0584C21.5289 12.7365 20.9591 14.8153 19.8919 16.4836C18.9793 17.9105 17.3254 19.6924 14.6237 20.0666C14.5392 20.0787 14.4788 20.1632 14.4885 20.2525C14.4981 20.3418 14.5754 20.407 14.6623 20.3974C19.1531 19.8469 22.5695 15.8897 22.5695 11.1937C22.5719 6.08719 18.5471 1.93441 13.6338 1.91992H13.571C10.0001 1.93441 6.79134 4.14118 5.38857 7.55273Z" fill="#C2930D"/>
<path d="M5.06941 15.236C6.27179 18.0005 8.87693 20.0237 12.0374 20.398C12.1195 20.4076 12.1967 20.3448 12.2064 20.2628C12.2161 20.1807 12.1581 20.101 12.076 20.0889C9.4419 19.7364 7.67456 18.155 6.78605 16.8126C6.23316 15.9772 5.80822 15.0332 5.54746 14.094L7.50313 9.47278C7.53452 9.38586 7.56832 9.3086 7.64558 9.3086C7.72284 9.3086 7.72284 9.43898 7.72284 9.54763V13.1596C7.72284 13.768 7.72284 14.5744 7.52728 15.1177H9.12803C8.889 14.6831 8.84554 14.1833 8.79001 13.6932C8.64756 12.387 8.70309 11.0277 8.70309 9.72146C8.70309 9.17822 8.66929 8.58911 8.92039 8.17624H7.80976C7.53693 8.17624 7.46209 8.40561 7.3631 8.63257L5.47986 13.1692C5.41467 13.3213 5.38087 13.43 5.28429 13.43C5.19738 13.43 5.16357 13.2441 5.11046 13.0823L3.56524 8.33801C3.52178 8.19556 3.3576 8.17383 3.22722 8.17383H1.81238C2.07313 8.33801 2.08521 8.49012 2.08521 8.78226V11.5033C2.08521 12.6791 2.04175 14.3982 1.63854 14.9752L1.53955 15.1177H2.83367C2.59465 14.7579 2.59465 14.0529 2.59465 13.203L2.6043 9.66593C2.6043 9.50175 2.6043 9.30618 2.70088 9.30618C2.79746 9.30618 2.87472 9.56694 2.99544 9.88323L5.067 15.2336L5.06941 15.236Z" fill="#003897"/>
</g>
<defs>
<clipPath id="clip0_4378_2579">
<rect width="21.0319" height="18.4774" fill="white" transform="translate(1.53955 1.91992)"/>
</clipPath>
</defs>
</svg>
