<svg width="120" height="101" viewBox="0 0 120 101" fill="none" xmlns="http://www.w3.org/2000/svg">
<g filter="url(#filter0_d_3349_23628)">
<rect x="20" y="10" width="80" height="80" rx="40" fill="#E6F9F8" shape-rendering="crispEdges"/>
<rect x="20.5" y="10.5" width="79" height="79" rx="39.5" stroke="#038984" shape-rendering="crispEdges"/>
<mask id="mask0_3349_23628" style="mask-type:alpha" maskUnits="userSpaceOnUse" x="36" y="26" width="48" height="48">
<rect x="36" y="26" width="48" height="48" fill="#D9D9D9"/>
</mask>
<g mask="url(#mask0_3349_23628)">
<path d="M59.978 61.2307C60.549 61.2307 61.0314 61.0335 61.425 60.6392C61.8185 60.2449 62.0153 59.7622 62.0153 59.1912C62.0153 58.6201 61.8182 58.1378 61.4239 57.7442C61.0296 57.3506 60.5469 57.1538 59.9758 57.1538C59.4047 57.1538 58.9224 57.351 58.5289 57.7453C58.1353 58.1396 57.9384 58.6222 57.9384 59.1933C57.9384 59.7644 58.1356 60.2467 58.5299 60.6403C58.9242 61.0339 59.4069 61.2307 59.978 61.2307ZM60.0033 68.9999C57.3754 68.9999 54.9054 68.5012 52.5931 67.5039C50.2808 66.5066 48.2694 65.1531 46.559 63.4434C44.8485 61.7337 43.4944 59.7232 42.4967 57.412C41.4989 55.1007 41 52.6312 41 50.0033C41 47.3754 41.4987 44.9054 42.496 42.5931C43.4933 40.2808 44.8468 38.2694 46.5565 36.559C48.2662 34.8485 50.2767 33.4944 52.588 32.4967C54.8992 31.4989 57.3687 31 59.9966 31C62.6245 31 65.0945 31.4987 67.4068 32.496C69.7191 33.4933 71.7305 34.8468 73.4409 36.5565C75.1514 38.2662 76.5055 40.2767 77.5033 42.588C78.501 44.8992 78.9999 47.3687 78.9999 49.9966C78.9999 52.6245 78.5012 55.0945 77.5039 57.4068C76.5066 59.7191 75.1531 61.7305 73.4434 63.4409C71.7337 65.1514 69.7232 66.5055 67.412 67.5033C65.1007 68.501 62.6312 68.9999 60.0033 68.9999ZM60 66C64.4666 66 68.25 64.45 71.35 61.35C74.45 58.25 76 54.4666 76 50C76 45.5333 74.45 41.75 71.35 38.65C68.25 35.55 64.4666 33.9999 60 33.9999C55.5333 33.9999 51.75 35.55 48.65 38.65C45.55 41.75 44 45.5333 44 50C44 54.4666 45.55 58.25 48.65 61.35C51.75 64.45 55.5333 66 60 66ZM60.162 41.4384C61.0847 41.4384 61.8833 41.7289 62.5577 42.3099C63.232 42.8908 63.5692 43.617 63.5692 44.4885C63.5692 45.2218 63.3538 45.8782 62.923 46.4577C62.4923 47.0371 62 47.5769 61.4462 48.0769C60.7202 48.7209 60.081 49.4294 59.5286 50.2023C58.9762 50.9751 58.6808 51.8359 58.6423 52.7846C58.6295 53.1487 58.7577 53.4538 59.0269 53.7C59.2961 53.9461 59.6102 54.0692 59.9692 54.0692C60.3538 54.0692 60.6794 53.941 60.9461 53.6846C61.2127 53.4282 61.3832 53.1141 61.4576 52.7423C61.5909 52.0551 61.8749 51.4429 62.3096 50.9058C62.7442 50.3686 63.215 49.8578 63.722 49.3734C64.4509 48.6629 65.0871 47.8882 65.6307 47.0494C66.1743 46.2105 66.4461 45.2748 66.4461 44.2423C66.4461 42.6577 65.8217 41.3558 64.573 40.3365C63.3243 39.3173 61.8666 38.8077 60.2 38.8077C59.0102 38.8077 57.8884 39.0712 56.8346 39.5981C55.7808 40.125 54.9603 40.8936 54.3731 41.9039C54.191 42.2141 54.1326 42.5406 54.1978 42.8835C54.2629 43.2263 54.4389 43.4867 54.7256 43.6645C55.0906 43.8676 55.4654 43.9256 55.85 43.8384C56.2346 43.7512 56.5615 43.532 56.8307 43.1808C57.2358 42.6551 57.7262 42.2333 58.3019 41.9154C58.8775 41.5974 59.4975 41.4384 60.162 41.4384Z" fill="#038984"/>
</g>
</g>
<defs>
<filter id="filter0_d_3349_23628" x="0" y="0" width="120" height="120" filterUnits="userSpaceOnUse" color-interpolation-filters="sRGB">
<feFlood flood-opacity="0" result="BackgroundImageFix"/>
<feColorMatrix in="SourceAlpha" type="matrix" values="0 0 0 0 0 0 0 0 0 0 0 0 0 0 0 0 0 0 127 0" result="hardAlpha"/>
<feOffset dy="10"/>
<feGaussianBlur stdDeviation="10"/>
<feComposite in2="hardAlpha" operator="out"/>
<feColorMatrix type="matrix" values="0 0 0 0 0 0 0 0 0 0 0 0 0 0 0 0 0 0 0.1 0"/>
<feBlend mode="normal" in2="BackgroundImageFix" result="effect1_dropShadow_3349_23628"/>
<feBlend mode="normal" in="SourceGraphic" in2="effect1_dropShadow_3349_23628" result="shape"/>
</filter>
</defs>
</svg>
