<svg width="594" height="733" viewBox="0 0 594 733" fill="none" xmlns="http://www.w3.org/2000/svg">
<g style="mix-blend-mode:plus-darker" opacity="0.05">
<path d="M-140 0L-140 183.351L43.3515 183.351C43.3515 82.0893 -38.7378 -4.42631e-06 -140 0Z" fill="#065EF9"/>
<path d="M43.3516 183.352L226.703 183.352L226.703 6.02648e-05C125.441 6.91175e-05 43.3516 82.0893 43.3516 183.352Z" fill="#065EF9" fill-opacity="0.5"/>
<path d="M226.703 0L226.703 183.351L410.055 183.351C410.055 82.0893 327.965 -4.42631e-06 226.703 0Z" fill="#004DD6"/>
<path d="M43.3516 366.703L43.3516 183.352L-140 183.352C-140 284.614 -57.9107 366.703 43.3516 366.703Z" fill="#065EF9" fill-opacity="0.75"/>
<path opacity="0.5" d="M410.055 366.703L410.055 183.352L226.703 183.352C226.703 284.614 308.792 366.703 410.055 366.703Z" fill="#065EF9" fill-opacity="0.75"/>
<path d="M410.055 183.352L410.055 366.703L593.406 366.703C593.406 265.441 511.317 183.352 410.055 183.352Z" fill="#065EF9"/>
<path d="M593.406 366.703L410.055 366.703L410.055 550.055C511.317 550.055 593.406 467.965 593.406 366.703Z" fill="#065EF9" fill-opacity="0.25"/>
<path d="M43.3516 366.703L43.3516 550.055L226.703 550.055C226.703 448.792 144.614 366.703 43.3516 366.703Z" fill="#065EF9" fill-opacity="0.75"/>
<path d="M226.703 549.074H43.3516L43.3516 732.426C144.614 732.426 226.703 650.336 226.703 549.074Z" fill="#065EF9" fill-opacity="0.46"/>
<path d="M-140 550.055L43.3515 550.055L43.3515 366.703C-57.9107 366.703 -140 448.792 -140 550.055Z" fill="#065EF9" fill-opacity="0.25"/>
<path d="M226.703 183.352L43.3516 183.352L43.3516 366.703C144.614 366.703 226.703 284.614 226.703 183.352Z" fill="#065EF9" fill-opacity="0.25"/>
<rect width="183.351" height="183.351" rx="91.6757" transform="matrix(-1 0 0 1 593.406 0)" fill="#065EF9" fill-opacity="0.5"/>
</g>
</svg>
