<svg width="64" height="64" viewBox="0 0 64 64" fill="none" xmlns="http://www.w3.org/2000/svg">
<path d="M32 0.5C37.9716 0.5 40.8844 0.502554 43.2969 0.982422C53.2537 2.96301 61.037 10.7463 63.0176 20.7031C63.4974 23.1156 63.5 26.0284 63.5 32C63.5 37.9716 63.4974 40.8844 63.0176 43.2969C61.037 53.2537 53.2537 61.037 43.2969 63.0176C40.8844 63.4974 37.9716 63.5 32 63.5C26.0284 63.5 23.1156 63.4974 20.7031 63.0176C10.7463 61.037 2.96301 53.2537 0.982422 43.2969C0.502554 40.8844 0.5 37.9716 0.5 32C0.5 26.0284 0.502554 23.1156 0.982422 20.7031C2.96301 10.7463 10.7463 2.96301 20.7031 0.982422C23.1156 0.502554 26.0284 0.5 32 0.5Z" fill="white"/>
<path d="M32 0.5C37.9716 0.5 40.8844 0.502554 43.2969 0.982422C53.2537 2.96301 61.037 10.7463 63.0176 20.7031C63.4974 23.1156 63.5 26.0284 63.5 32C63.5 37.9716 63.4974 40.8844 63.0176 43.2969C61.037 53.2537 53.2537 61.037 43.2969 63.0176C40.8844 63.4974 37.9716 63.5 32 63.5C26.0284 63.5 23.1156 63.4974 20.7031 63.0176C10.7463 61.037 2.96301 53.2537 0.982422 43.2969C0.502554 40.8844 0.5 37.9716 0.5 32C0.5 26.0284 0.502554 23.1156 0.982422 20.7031C2.96301 10.7463 10.7463 2.96301 20.7031 0.982422C23.1156 0.502554 26.0284 0.5 32 0.5Z" stroke="#D9D9D9"/>
<mask id="mask0_3349_23447" style="mask-type:alpha" maskUnits="userSpaceOnUse" x="16" y="16" width="32" height="32">
<rect x="16" y="16" width="32" height="32" fill="#D9D9D9"/>
</mask>
<g mask="url(#mask0_3349_23447)">
<path d="M24.4103 44.6673C23.7474 44.6673 23.18 44.4313 22.708 43.9593C22.236 43.4873 22 42.9199 22 42.257V39.6877C22 39.2972 22.0872 38.936 22.2617 38.604C22.4359 38.2718 22.6727 37.9894 22.972 37.757C24.6164 36.4356 25.7963 35.1245 26.5117 33.8237C27.227 32.5228 27.7402 31.3595 28.0513 30.334H25.577C25.2937 30.334 25.0561 30.2381 24.8643 30.0463C24.6728 29.8545 24.577 29.617 24.577 29.3336C24.577 29.0501 24.6728 28.8127 24.8643 28.6213C25.0561 28.4298 25.2937 28.334 25.577 28.334H27.8463C27.4326 27.8622 27.1048 27.3314 26.863 26.7416C26.621 26.1519 26.5 25.516 26.5 24.834C26.5 23.3062 27.035 22.0077 28.105 20.9383C29.1748 19.8688 30.4739 19.334 32.0023 19.334C33.5308 19.334 34.8291 19.8688 35.8973 20.9383C36.9658 22.0077 37.5 23.3062 37.5 24.834C37.5 25.516 37.379 26.1519 37.137 26.7416C36.8952 27.3314 36.5674 27.8622 36.1537 28.334H38.436C38.7193 28.334 38.9568 28.4299 39.1483 28.6217C39.3401 28.8134 39.436 29.051 39.436 29.3343C39.436 29.6179 39.3401 29.8553 39.1483 30.0467C38.9568 30.2382 38.7193 30.334 38.436 30.334H35.9743C36.2652 31.3607 36.7691 32.5241 37.486 33.8243C38.2029 35.1248 39.3836 36.4356 41.028 37.757C41.3273 37.9894 41.5641 38.2718 41.7383 38.604C41.9128 38.936 42 39.2972 42 39.6877V42.257C42 42.9199 41.764 43.4873 41.292 43.9593C40.82 44.4313 40.2526 44.6673 39.5897 44.6673H24.4103ZM24.4103 42.6673H39.5897C39.7094 42.6673 39.8078 42.6289 39.8847 42.552C39.9616 42.4751 40 42.3768 40 42.257V39.5646C38.1264 38.0844 36.7384 36.552 35.836 34.9673C34.9333 33.3827 34.288 31.8382 33.9 30.334H30.1127C29.7247 31.8382 29.0772 33.3827 28.1703 34.9673C27.2637 36.552 25.8736 38.0844 24 39.5646V42.257C24 42.3768 24.0384 42.4751 24.1153 42.552C24.1922 42.6289 24.2906 42.6673 24.4103 42.6673ZM32.005 28.334C32.9863 28.334 33.8141 27.9957 34.4883 27.319C35.1628 26.6423 35.5 25.814 35.5 24.834C35.5 23.854 35.1621 23.0257 34.4863 22.349C33.8103 21.6723 32.9829 21.334 32.004 21.334C31.0253 21.334 30.1967 21.6723 29.518 22.349C28.8393 23.0257 28.5 23.854 28.5 24.834C28.5 25.814 28.8388 26.6423 29.5163 27.319C30.1939 27.9957 31.0234 28.334 32.005 28.334Z" fill="#006EE6"/>
</g>
</svg>
