<svg width="32" height="32" viewBox="0 0 32 32" fill="none" xmlns="http://www.w3.org/2000/svg">
<mask id="mask0_3349_23976" style="mask-type:alpha" maskUnits="userSpaceOnUse" x="0" y="0" width="32" height="32">
<rect width="32" height="32" fill="#D9D9D9"/>
</mask>
<g mask="url(#mask0_3349_23976)">
<path d="M16.0001 17.4057L20.0976 21.5031C20.2822 21.6878 20.5142 21.7822 20.7937 21.7865C21.0732 21.7908 21.3095 21.6963 21.5027 21.5031C21.6958 21.31 21.7924 21.0758 21.7924 20.8006C21.7924 20.5254 21.6958 20.2912 21.5027 20.0981L17.4052 16.0006L21.5027 11.9032C21.6873 11.7186 21.7817 11.4865 21.786 11.207C21.7903 10.9276 21.6958 10.6912 21.5027 10.4981C21.3095 10.3049 21.0753 10.2083 20.8001 10.2083C20.5249 10.2083 20.2908 10.3049 20.0976 10.4981L16.0001 14.5955L11.9027 10.4981C11.7181 10.3135 11.486 10.219 11.2065 10.2148C10.9271 10.2105 10.6908 10.3049 10.4976 10.4981C10.3044 10.6912 10.2078 10.9254 10.2078 11.2006C10.2078 11.4758 10.3044 11.71 10.4976 11.9032L14.595 16.0006L10.4976 20.0981C10.313 20.2827 10.2185 20.5147 10.2143 20.7942C10.21 21.0737 10.3044 21.31 10.4976 21.5031C10.6908 21.6963 10.9249 21.7929 11.2001 21.7929C11.4753 21.7929 11.7095 21.6963 11.9027 21.5031L16.0001 17.4057ZM16.0024 28.6673C14.2505 28.6673 12.6037 28.3348 11.0622 27.6699C9.5207 27.005 8.17979 26.1027 7.0395 24.9629C5.89919 23.8231 4.99644 22.4828 4.33126 20.942C3.66609 19.4011 3.3335 17.7548 3.3335 16.0029C3.3335 14.2509 3.66594 12.6042 4.33083 11.0627C4.99572 9.52118 5.89805 8.18027 7.03783 7.03998C8.17763 5.89967 9.51795 4.99693 11.0588 4.33175C12.5996 3.66657 14.246 3.33398 15.9979 3.33398C17.7498 3.33398 19.3965 3.66643 20.938 4.33132C22.4796 4.99621 23.8205 5.89854 24.9608 7.03832C26.1011 8.17812 27.0038 9.51844 27.669 11.0593C28.3342 12.6001 28.6668 14.2465 28.6668 15.9984C28.6668 17.7503 28.3343 19.397 27.6694 20.9385C27.0045 22.4801 26.1022 23.821 24.9624 24.9613C23.8226 26.1016 22.4823 27.0043 20.9415 27.6695C19.4006 28.3347 17.7543 28.6673 16.0024 28.6673Z" fill="#EB0000"/>
</g>
</svg>
