<svg width="15" height="16" viewBox="0 0 15 16" fill="none" xmlns="http://www.w3.org/2000/svg">
<path d="M6.71152 15.0467L0.25575 8.5909C0.162167 8.49732 0.0961415 8.3986 0.0576748 8.29475C0.0192248 8.19092 0 8.07874 0 7.95823C0 7.83771 0.0192248 7.72553 0.0576748 7.6217C0.0961415 7.51785 0.162167 7.41913 0.25575 7.32555L6.72112 0.860176C6.85959 0.72171 7.02947 0.64991 7.23075 0.644776C7.43202 0.63966 7.61022 0.71466 7.76535 0.869776C7.92047 1.01464 8.00059 1.18772 8.00572 1.389C8.01084 1.59027 7.93584 1.76847 7.78073 1.9236L2.49608 7.20825H14.1038C14.3166 7.20825 14.4948 7.28004 14.6384 7.42363C14.782 7.56721 14.8538 7.74541 14.8538 7.95823C14.8538 8.17104 14.782 8.34924 14.6384 8.49283C14.4948 8.63641 14.3166 8.7082 14.1038 8.7082H2.49608L7.79035 14.0025C7.9288 14.1409 8.00059 14.3134 8.00572 14.5198C8.01084 14.7262 7.93584 14.9018 7.78073 15.0467C7.63586 15.2018 7.46023 15.2794 7.25383 15.2794C7.04741 15.2794 6.86664 15.2018 6.71152 15.0467Z" fill="#006EE6"/>
</svg>
