<svg width="24" height="24" viewBox="0 0 24 24" fill="none" xmlns="http://www.w3.org/2000/svg">
<mask id="mask0_4377_7972" style="mask-type:alpha" maskUnits="userSpaceOnUse" x="0" y="0" width="24" height="24">
<rect width="24" height="24" fill="#D9D9D9"/>
</mask>
<g mask="url(#mask0_4377_7972)">
<path d="M11.4732 19.0876C11.3283 18.9427 11.2533 18.7671 11.2482 18.5606C11.2431 18.3542 11.3129 18.1786 11.4578 18.0337L16.7425 12.7491H5.13474C4.92192 12.7491 4.74372 12.6773 4.60014 12.5337C4.45656 12.3901 4.38477 12.2119 4.38477 11.9991C4.38477 11.7863 4.45656 11.6081 4.60014 11.4645C4.74372 11.3209 4.92192 11.2491 5.13474 11.2491H16.7425L11.4578 5.96448C11.3129 5.81962 11.2431 5.64398 11.2482 5.43758C11.2533 5.23117 11.3283 5.05553 11.4732 4.91066C11.6181 4.76579 11.7937 4.69336 12.0001 4.69336C12.2065 4.69336 12.3821 4.76579 12.527 4.91066L18.9828 11.3664C19.0764 11.4498 19.1424 11.5459 19.1809 11.6549C19.2193 11.7639 19.2385 11.8786 19.2385 11.9991C19.2385 12.1132 19.2193 12.2238 19.1809 12.3308C19.1424 12.4379 19.0764 12.5382 18.9828 12.6318L12.527 19.0876C12.3821 19.2324 12.2065 19.3049 12.0001 19.3049C11.7937 19.3049 11.6181 19.2324 11.4732 19.0876Z" fill="white"/>
</g>
</svg>
