<svg width="16" height="16" viewBox="0 0 16 16" fill="none" xmlns="http://www.w3.org/2000/svg">
<path d="M7.47322 15.0876C7.32833 14.9427 7.25333 14.7671 7.24822 14.5606C7.24308 14.3542 7.31295 14.1786 7.45782 14.0337L12.7425 8.74909H1.13474C0.921924 8.74909 0.743724 8.67729 0.600141 8.53371C0.456557 8.39013 0.384766 8.21193 0.384766 7.99911C0.384766 7.78629 0.456557 7.60809 0.600141 7.46451C0.743724 7.32093 0.921924 7.24913 1.13474 7.24913H12.7425L7.45782 1.96448C7.31295 1.81962 7.24308 1.64398 7.24822 1.43758C7.25333 1.23117 7.32833 1.05553 7.47322 0.91066C7.61808 0.765793 7.79372 0.693359 8.00012 0.693359C8.20652 0.693359 8.38215 0.765793 8.52702 0.91066L14.9828 7.36643C15.0764 7.44977 15.1424 7.54592 15.1809 7.65489C15.2193 7.76385 15.2385 7.87859 15.2385 7.99911C15.2385 8.11321 15.2193 8.22378 15.1809 8.33083C15.1424 8.43788 15.0764 8.5382 14.9828 8.63178L8.52702 15.0876C8.38215 15.2324 8.20652 15.3049 8.00012 15.3049C7.79372 15.3049 7.61808 15.2324 7.47322 15.0876Z" fill="#006EE6"/>
</svg>
