<svg width="20" height="20" viewBox="0 0 20 20" fill="none" xmlns="http://www.w3.org/2000/svg">
<path d="M6.28738 1.28511C6.43112 1.14155 6.50299 0.963375 6.50299 0.750608C6.50299 0.538006 6.43112 0.359755 6.28738 0.215854C6.14365 0.0719505 5.96548 -9.293e-09 5.75288 0L0.904314 2.11938e-07C0.648025 2.2314e-07 0.433257 0.0867082 0.260007 0.260124C0.0867579 0.433375 0.000132853 0.648142 0.000132864 0.904431L0.000133076 5.75275C0.000133085 5.96535 0.0719174 6.1436 0.215486 6.2875C0.359221 6.43124 0.537389 6.5031 0.74999 6.5031C0.962759 6.5031 1.14109 6.43124 1.285 6.2875C1.42873 6.1436 1.5006 5.96535 1.5006 5.75274L1.5006 1.50072L5.75288 1.50072C5.96548 1.50072 6.14365 1.42885 6.28738 1.28511Z" fill="#A6A6A6"/>
<path d="M1.28511 13.4718C1.14155 13.3281 0.963376 13.2562 0.750608 13.2562C0.538006 13.2562 0.359755 13.3281 0.215854 13.4718C0.0719506 13.6155 -1.85862e-08 13.7937 0 14.0063L4.23875e-07 18.8549C4.4628e-07 19.1112 0.0867085 19.3259 0.260124 19.4992C0.433375 19.6724 0.648142 19.7591 0.904432 19.7591H5.75275C5.96535 19.7591 6.1436 19.6873 6.2875 19.5437C6.43124 19.4 6.5031 19.2218 6.5031 19.0092C6.5031 18.7964 6.43124 18.6181 6.2875 18.4742C6.1436 18.3305 5.96535 18.2586 5.75275 18.2586H1.50072L1.50072 14.0063C1.50072 13.7937 1.42885 13.6155 1.28511 13.4718Z" fill="#A6A6A6"/>
<path d="M18.7149 6.28738C18.8585 6.43111 19.0366 6.50298 19.2494 6.50298C19.462 6.50298 19.6402 6.43111 19.7841 6.28738C19.928 6.14364 20 5.96547 20 5.75287V0.904307C20 0.648018 19.9133 0.43325 19.7399 0.260001C19.5666 0.0867513 19.3519 0.000126273 19.0956 0.000126273H14.2473C14.0347 0.000126273 13.8564 0.0719105 13.7125 0.215479C13.5688 0.359214 13.4969 0.537382 13.4969 0.749983C13.4969 0.962752 13.5688 1.14109 13.7125 1.28499C13.8564 1.42872 14.0347 1.50059 14.2473 1.50059H18.4993V5.75287C18.4993 5.96547 18.5712 6.14364 18.7149 6.28738Z" fill="#A6A6A6"/>
<path fill-rule="evenodd" clip-rule="evenodd" d="M8.96255 15.6155C9.88999 16.543 11.0117 17.0067 12.3278 17.0067C12.8096 17.0067 13.2752 16.9336 13.7246 16.7873C14.174 16.641 14.5995 16.4455 15.0011 16.2008L17.5872 18.7751C17.761 18.9414 17.9719 19.0265 18.2199 19.0303C18.4676 19.0341 18.6784 18.949 18.8523 18.7751C19.0261 18.6012 19.1112 18.3884 19.1074 18.1367C19.1036 17.8852 19.0185 17.6763 18.8523 17.51L16.2665 14.924C16.5343 14.53 16.7375 14.1064 16.8761 13.6532C17.0146 13.2 17.0838 12.7324 17.0838 12.2506C17.0838 10.9346 16.6201 9.81285 15.6927 8.88541C14.7654 7.95817 13.6438 7.49455 12.3278 7.49455C11.0117 7.49455 9.88999 7.95817 8.96255 8.88541C8.03531 9.81285 7.57168 10.9346 7.57168 12.2506C7.57168 13.5666 8.03531 14.6883 8.96255 15.6155ZM14.424 14.3468C13.8515 14.9195 13.1527 15.2058 12.3278 15.2058C11.5028 15.2058 10.8039 14.9195 10.2313 14.3468C9.65878 13.7743 9.37254 13.0756 9.37254 12.2506C9.37254 11.4256 9.65878 10.7268 10.2313 10.1541C10.8039 9.58164 11.5028 9.29541 12.3278 9.29541C13.1527 9.29541 13.8515 9.58164 14.424 10.1541C14.9966 10.7268 15.283 11.4256 15.283 12.2506C15.283 13.0756 14.9966 13.7743 14.424 14.3468Z" fill="#A6A6A6"/>
</svg>
