<svg width="16" height="21" viewBox="0 0 16 21" fill="none" xmlns="http://www.w3.org/2000/svg">
<path d="M7.99997 13.7495C7.78716 13.7495 7.60896 13.6777 7.46537 13.5341C7.32179 13.3905 7.25 13.2123 7.25 12.9995V2.71876L5.91727 4.05148C5.77881 4.18993 5.60894 4.25916 5.40768 4.25916C5.20639 4.25916 5.02819 4.1816 4.87308 4.02648C4.72819 3.87135 4.65575 3.69315 4.65575 3.49188C4.65575 3.2906 4.72819 3.11752 4.87308 2.97266L7.3673 0.478431C7.45063 0.395098 7.54678 0.33164 7.65575 0.288056C7.76472 0.244456 7.87946 0.222656 7.99997 0.222656C8.12049 0.222656 8.23523 0.244456 8.3442 0.288056C8.45317 0.33164 8.54932 0.395098 8.63265 0.478431L11.1365 2.98228C11.2852 3.131 11.3596 3.30856 11.3596 3.51496C11.3596 3.72136 11.282 3.89699 11.1269 4.04186C10.9718 4.18672 10.7936 4.25916 10.5923 4.25916C10.391 4.25916 10.2179 4.18672 10.0731 4.04186L8.74995 2.71876V12.9995C8.74995 13.2123 8.67816 13.3905 8.53458 13.5341C8.39099 13.6777 8.21279 13.7495 7.99997 13.7495ZM2.3077 20.4995C1.80257 20.4995 1.375 20.3245 1.025 19.9745C0.675 19.6245 0.5 19.1969 0.5 18.6918V8.30726C0.5 7.80212 0.675 7.37456 1.025 7.02456C1.375 6.67456 1.80257 6.49956 2.3077 6.49956H4.11537C4.32819 6.49956 4.50639 6.57136 4.64997 6.71496C4.79356 6.85854 4.86535 7.03674 4.86535 7.24956C4.86535 7.46237 4.79356 7.64057 4.64997 7.78416C4.50639 7.92774 4.32819 7.99953 4.11537 7.99953H2.3077C2.23077 7.99953 2.16024 8.03158 2.09612 8.09568C2.03202 8.1598 1.99997 8.23032 1.99997 8.30726V18.6918C1.99997 18.7687 2.03202 18.8393 2.09612 18.9034C2.16024 18.9675 2.23077 18.9995 2.3077 18.9995H13.6922C13.7692 18.9995 13.8397 18.9675 13.9038 18.9034C13.9679 18.8393 14 18.7687 14 18.6918V8.30726C14 8.23032 13.9679 8.1598 13.9038 8.09568C13.8397 8.03158 13.7692 7.99953 13.6922 7.99953H11.8846C11.6718 7.99953 11.4936 7.92774 11.35 7.78416C11.2064 7.64057 11.1346 7.46237 11.1346 7.24956C11.1346 7.03674 11.2064 6.85854 11.35 6.71496C11.4936 6.57136 11.6718 6.49956 11.8846 6.49956H13.6922C14.1974 6.49956 14.625 6.67456 14.975 7.02456C15.325 7.37456 15.5 7.80212 15.5 8.30726V18.6918C15.5 19.1969 15.325 19.6245 14.975 19.9745C14.625 20.3245 14.1974 20.4995 13.6922 20.4995H2.3077Z" fill="#006EE6"/>
</svg>
