<svg width="40" height="41" viewBox="0 0 40 41" fill="none" xmlns="http://www.w3.org/2000/svg">
<g filter="url(#filter0_dd_4394_9428)">
<rect x="4" y="1" width="32" height="32" rx="16" fill="#006EE6" shape-rendering="crispEdges"/>
<mask id="mask0_4394_9428" style="mask-type:alpha" maskUnits="userSpaceOnUse" x="12" y="9" width="16" height="16">
<rect x="12" y="9" width="16" height="16" fill="#D9D9D9"/>
</mask>
<g mask="url(#mask0_4394_9428)">
<path d="M25.0952 20.7569C25.2369 20.7569 25.3556 20.709 25.4515 20.6131C25.5473 20.5172 25.5952 20.3984 25.5952 20.2567C25.5952 20.115 25.5473 19.9963 25.4515 19.9005C25.3556 19.8048 25.2369 19.757 25.0952 19.757H17.7619C17.6202 19.757 17.5015 19.8049 17.4056 19.9008C17.3098 19.9966 17.2619 20.1154 17.2619 20.2572C17.2619 20.3989 17.3098 20.5176 17.4056 20.6133C17.5015 20.7091 17.6202 20.7569 17.7619 20.7569H25.0952ZM25.0952 17.5005C25.2369 17.5005 25.3556 17.4526 25.4515 17.3567C25.5473 17.2608 25.5952 17.142 25.5952 17.0003C25.5952 16.8586 25.5473 16.7399 25.4515 16.6441C25.3556 16.5484 25.2369 16.5006 25.0952 16.5006H19.7619C19.6202 16.5006 19.5015 16.5485 19.4056 16.6444C19.3098 16.7402 19.2619 16.859 19.2619 17.0008C19.2619 17.1425 19.3098 17.2612 19.4056 17.3569C19.5015 17.4527 19.6202 17.5005 19.7619 17.5005H25.0952ZM25.0952 14.2441C25.2369 14.2441 25.3556 14.1962 25.4515 14.1003C25.5473 14.0044 25.5952 13.8856 25.5952 13.7439C25.5952 13.6022 25.5473 13.4835 25.4515 13.3877C25.3556 13.292 25.2369 13.2441 25.0952 13.2441H17.7619C17.6202 13.2441 17.5015 13.2921 17.4056 13.388C17.3098 13.4838 17.2619 13.6026 17.2619 13.7444C17.2619 13.8861 17.3098 14.0048 17.4056 14.1005C17.5015 14.1963 17.6202 14.2441 17.7619 14.2441H25.0952ZM16.3927 17.0005L14.3439 19.0493C14.2516 19.1416 14.2044 19.2576 14.2023 19.3973C14.2002 19.5371 14.2474 19.6552 14.3439 19.7518C14.4405 19.8484 14.5576 19.8967 14.6952 19.8967C14.8328 19.8967 14.9499 19.8484 15.0465 19.7518L17.376 17.4223C17.4965 17.3018 17.5567 17.1612 17.5567 17.0005C17.5567 16.8399 17.4965 16.6993 17.376 16.5788L15.0465 14.2493C14.9542 14.157 14.8382 14.1097 14.6984 14.1076C14.5587 14.1055 14.4405 14.1527 14.3439 14.2493C14.2474 14.3459 14.1991 14.4629 14.1991 14.6005C14.1991 14.7381 14.2474 14.8552 14.3439 14.9518L16.3927 17.0005Z" fill="white"/>
</g>
</g>
<defs>
<filter id="filter0_dd_4394_9428" x="0" y="0" width="40" height="41" filterUnits="userSpaceOnUse" color-interpolation-filters="sRGB">
<feFlood flood-opacity="0" result="BackgroundImageFix"/>
<feColorMatrix in="SourceAlpha" type="matrix" values="0 0 0 0 0 0 0 0 0 0 0 0 0 0 0 0 0 0 127 0" result="hardAlpha"/>
<feOffset/>
<feGaussianBlur stdDeviation="0.5"/>
<feComposite in2="hardAlpha" operator="out"/>
<feColorMatrix type="matrix" values="0 0 0 0 0 0 0 0 0 0 0 0 0 0 0 0 0 0 0.5 0"/>
<feBlend mode="normal" in2="BackgroundImageFix" result="effect1_dropShadow_4394_9428"/>
<feColorMatrix in="SourceAlpha" type="matrix" values="0 0 0 0 0 0 0 0 0 0 0 0 0 0 0 0 0 0 127 0" result="hardAlpha"/>
<feOffset dy="4"/>
<feGaussianBlur stdDeviation="2"/>
<feComposite in2="hardAlpha" operator="out"/>
<feColorMatrix type="matrix" values="0 0 0 0 0 0 0 0 0 0 0 0 0 0 0 0 0 0 0.25 0"/>
<feBlend mode="normal" in2="effect1_dropShadow_4394_9428" result="effect2_dropShadow_4394_9428"/>
<feBlend mode="normal" in="SourceGraphic" in2="effect2_dropShadow_4394_9428" result="shape"/>
</filter>
</defs>
</svg>
