<svg width="31" height="32" viewBox="0 0 31 32" fill="none" xmlns="http://www.w3.org/2000/svg">
<path d="M5.33857 18.6758C5.33857 20.1523 6.52785 21.3425 8.00327 21.3425L10.668 21.3425L10.668 10.6758L5.33857 10.6758L5.33857 18.6758Z" fill="#006EE6"/>
<path d="M2.66489 0.00976551C1.18947 0.00976544 0.000194974 1.19993 0.00019491 2.67644L0.000194677 8.00977C0.000194612 9.48628 1.18947 10.6764 2.66489 10.6764L5.32959 10.6764L5.32959 2.67644C5.32959 1.19993 4.14031 0.00976557 2.66489 0.00976551Z" fill="#006EE6"/>
<path d="M17.8661 28.3311C18.2148 27.7226 18.4563 27.2036 18.5814 26.9172L29.5264 5.34228C31.4042 1.85235 28.7395 0.644295 26.7812 0.223713C25.8155 0.0178969 25.0107 -2.25346e-07 25.0107 -2.25346e-07L23.9824 -2.70295e-07C22.5159 -3.34397e-07 21.3266 1.19016 21.3266 2.65772L21.3266 8C21.3266 9.47651 20.1373 10.6667 18.6619 10.6667L15.9972 10.6667L15.9972 5.33333L15.9972 2.66667C15.9972 1.19016 14.808 -6.71322e-07 13.3325 -7.35815e-07C11.8571 -8.00308e-07 10.6678 1.19016 10.6678 2.66667L10.6678 10.6667L15.9972 10.6667L15.9972 18.6667C15.9972 20.1432 14.8079 21.3333 13.3325 21.3333L10.6678 21.3333L10.6678 27.4989C10.6678 29.0022 10.9629 32 13.3683 32C15.3892 32 16.9719 29.8792 17.8661 28.3132L17.8661 28.3311Z" fill="#006EE6"/>
</svg>
